<svg width="21" height="20" viewBox="0 0 21 20" fill="none" xmlns="http://www.w3.org/2000/svg">
<path d="M7.16634 13.333C7.16634 14.2535 6.42015 14.9997 5.49967 14.9997C4.5792 14.9997 3.83301 14.2535 3.83301 13.333C3.83301 12.4125 4.5792 11.6663 5.49967 11.6663C6.42015 11.6663 7.16634 12.4125 7.16634 13.333Z" fill="#25262C"/>
<path d="M12.1663 6.66634C12.1663 7.58682 11.4201 8.33301 10.4997 8.33301C9.5792 8.33301 8.83301 7.58682 8.83301 6.66634C8.83301 5.74587 9.5792 4.99967 10.4997 4.99967C11.4201 4.99967 12.1663 5.74587 12.1663 6.66634Z" fill="#25262C"/>
<path d="M17.1663 13.333C17.1663 14.2535 16.4201 14.9997 15.4997 14.9997C14.5792 14.9997 13.833 14.2535 13.833 13.333C13.833 12.4125 14.5792 11.6663 15.4997 11.6663C16.4201 11.6663 17.1663 12.4125 17.1663 13.333Z" fill="#25262C"/>
<path d="M10.4997 4.99967V3.33301M10.4997 4.99967C9.5792 4.99967 8.83301 5.74587 8.83301 6.66634C8.83301 7.58682 9.5792 8.33301 10.4997 8.33301M10.4997 4.99967C11.4201 4.99967 12.1663 5.74587 12.1663 6.66634C12.1663 7.58682 11.4201 8.33301 10.4997 8.33301M5.49967 14.9997C6.42015 14.9997 7.16634 14.2535 7.16634 13.333C7.16634 12.4125 6.42015 11.6663 5.49967 11.6663M5.49967 14.9997C4.5792 14.9997 3.83301 14.2535 3.83301 13.333C3.83301 12.4125 4.5792 11.6663 5.49967 11.6663M5.49967 14.9997V16.6663M5.49967 11.6663V3.33301M10.4997 8.33301V16.6663M15.4997 14.9997C16.4201 14.9997 17.1663 14.2535 17.1663 13.333C17.1663 12.4125 16.4201 11.6663 15.4997 11.6663M15.4997 14.9997C14.5792 14.9997 13.833 14.2535 13.833 13.333C13.833 12.4125 14.5792 11.6663 15.4997 11.6663M15.4997 14.9997V16.6663M15.4997 11.6663V3.33301" stroke="#25262C" stroke-width="2" stroke-linecap="round" stroke-linejoin="round"/>
</svg>
