<svg width="32" height="32" viewBox="0 0 32 32" fill="none" xmlns="http://www.w3.org/2000/svg">
<g id="Icon/Outline/chat-alt">
<path id="Icon" d="M12 21.3333H13C13 20.781 12.5523 20.3333 12 20.3333V21.3333ZM12 27.9999H11C11 28.4044 11.2436 28.769 11.6173 28.9238C11.991 29.0786 12.4211 28.993 12.7071 28.707L12 27.9999ZM18.6667 21.3333V20.3333C18.4015 20.3333 18.1471 20.4386 17.9596 20.6261L18.6667 21.3333ZM10.6667 12.3333C10.1144 12.3333 9.66667 12.781 9.66667 13.3333C9.66667 13.8855 10.1144 14.3333 10.6667 14.3333V12.3333ZM10.68 14.3333C11.2323 14.3333 11.68 13.8855 11.68 13.3333C11.68 12.781 11.2323 12.3333 10.68 12.3333V14.3333ZM16 12.3333C15.4477 12.3333 15 12.781 15 13.3333C15 13.8855 15.4477 14.3333 16 14.3333V12.3333ZM16.0133 14.3333C16.5656 14.3333 17.0133 13.8855 17.0133 13.3333C17.0133 12.781 16.5656 12.3333 16.0133 12.3333V14.3333ZM21.3333 12.3333C20.781 12.3333 20.3333 12.781 20.3333 13.3333C20.3333 13.8855 20.781 14.3333 21.3333 14.3333V12.3333ZM21.3467 14.3333C21.899 14.3333 22.3467 13.8855 22.3467 13.3333C22.3467 12.781 21.899 12.3333 21.3467 12.3333V14.3333ZM6.66667 6.33325H25.3333V4.33325H6.66667V6.33325ZM27 7.99992V18.6666H29V7.99992H27ZM5 18.6666V7.99992H3V18.6666H5ZM12 20.3333H6.66667V22.3333H12V20.3333ZM13 27.9999V21.3333H11V27.9999H13ZM25.3333 20.3333H18.6667V22.3333H25.3333V20.3333ZM17.9596 20.6261L11.2929 27.2928L12.7071 28.707L19.3738 22.0404L17.9596 20.6261ZM3 18.6666C3 20.6916 4.64162 22.3333 6.66667 22.3333V20.3333C5.74619 20.3333 5 19.5871 5 18.6666H3ZM27 18.6666C27 19.5871 26.2538 20.3333 25.3333 20.3333V22.3333C27.3584 22.3333 29 20.6916 29 18.6666H27ZM25.3333 6.33325C26.2538 6.33325 27 7.07944 27 7.99992H29C29 5.97487 27.3584 4.33325 25.3333 4.33325V6.33325ZM6.66667 4.33325C4.64162 4.33325 3 5.97487 3 7.99992H5C5 7.07944 5.74619 6.33325 6.66667 6.33325V4.33325ZM10.6667 14.3333H10.68V12.3333H10.6667V14.3333ZM16 14.3333H16.0133V12.3333H16V14.3333ZM21.3333 14.3333H21.3467V12.3333H21.3333V14.3333Z" fill="#4F4E61"/>
</g>
</svg>
