<svg width="18" height="18" viewBox="0 0 18 18" fill="none" xmlns="http://www.w3.org/2000/svg">
<g id="discord">
<path id="Vector" d="M14.7526 2.45519C14.748 2.44406 14.7404 2.43534 14.7311 2.43058C13.6589 1.81565 12.5274 1.37716 11.3649 1.12608C11.3543 1.12362 11.3434 1.12539 11.3337 1.13114C11.324 1.13688 11.316 1.1463 11.3108 1.15807C11.1567 1.50762 11.0169 1.86667 10.8918 2.23385C9.63869 1.99608 8.3641 1.99608 7.11103 2.23385C6.98508 1.86574 6.84297 1.5066 6.68536 1.15807C6.67995 1.14656 6.6719 1.13735 6.66225 1.13165C6.6526 1.12594 6.64179 1.124 6.63125 1.12608C5.46867 1.37663 4.3371 1.81516 3.26502 2.43062C3.25584 2.43548 3.2481 2.44379 3.24286 2.45438C1.09892 6.4565 0.511612 10.3602 0.799724 14.2156C0.800535 14.225 0.802857 14.2342 0.806553 14.2425C0.810249 14.2508 0.815244 14.2581 0.82124 14.2639C2.06964 15.4194 3.46598 16.3013 4.95069 16.8721C4.96115 16.8761 4.97231 16.8759 4.98269 16.8716C4.99306 16.8674 5.00214 16.8593 5.00871 16.8484C5.3276 16.306 5.61015 15.7317 5.85351 15.1313C5.85685 15.123 5.85876 15.114 5.85911 15.1048C5.85946 15.0955 5.85824 15.0863 5.85553 15.0777C5.85282 15.0691 5.84869 15.0614 5.8434 15.0549C5.83811 15.0484 5.83179 15.0435 5.82485 15.0403C5.37928 14.8272 4.94792 14.5703 4.53481 14.272C4.5273 14.2665 4.521 14.2588 4.51646 14.2495C4.51191 14.2402 4.50927 14.2297 4.50875 14.2188C4.50824 14.2079 4.50987 14.1971 4.51351 14.1872C4.51715 14.1773 4.52267 14.1687 4.52961 14.1621C4.61629 14.0809 4.70302 13.9965 4.7858 13.9112C4.79315 13.9036 4.80205 13.8988 4.81149 13.8972C4.82093 13.8956 4.83054 13.8973 4.83923 13.9022C7.54567 15.4462 10.4758 15.4462 13.1502 13.9022C13.1589 13.897 13.1686 13.8951 13.1782 13.8965C13.1878 13.898 13.1968 13.9028 13.2043 13.9104C13.2871 13.9957 13.3738 14.0809 13.4611 14.1621C13.4681 14.1686 13.4737 14.1772 13.4774 14.187C13.4811 14.1969 13.4828 14.2077 13.4823 14.2186C13.4819 14.2295 13.4793 14.24 13.4748 14.2493C13.4703 14.2586 13.464 14.2664 13.4566 14.272C13.0444 14.5728 12.6126 14.8295 12.1659 15.0395C12.159 15.0428 12.1527 15.0479 12.1474 15.0544C12.1422 15.061 12.1381 15.0688 12.1354 15.0775C12.1328 15.0862 12.1316 15.0954 12.132 15.1047C12.1324 15.114 12.1344 15.123 12.1378 15.1313C12.3852 15.7284 12.6673 16.3019 12.9819 16.8474C12.9883 16.8586 12.9973 16.867 13.0078 16.8714C13.0182 16.8758 13.0294 16.8761 13.0399 16.872C14.5273 16.3031 15.9261 15.4211 17.1761 14.2639C17.1822 14.2584 17.1872 14.2513 17.1909 14.2431C17.1946 14.2349 17.1969 14.2258 17.1976 14.2164C17.5425 9.75918 16.6201 5.88746 14.7526 2.45519ZM6.25769 11.8681C5.44285 11.8681 4.77145 10.9334 4.77145 9.78545C4.77145 8.63753 5.42983 7.70276 6.25769 7.70276C7.09202 7.70276 7.75692 8.64565 7.7439 9.78538C7.7439 10.9334 7.08549 11.8681 6.25769 11.8681ZM11.7528 11.8681C10.9379 11.8681 10.2665 10.9334 10.2665 9.78545C10.2665 8.63753 10.9249 7.70276 11.7528 7.70276C12.5871 7.70276 13.252 8.64565 13.239 9.78538C13.239 10.9334 12.5871 11.8681 11.7528 11.8681Z" fill="#FCFCFC"/>
</g>
</svg>
