<svg width="24" height="24" viewBox="0 0 24 24" fill="none" xmlns="http://www.w3.org/2000/svg">
<g id="transparent-black 2">
<path id="Vector" d="M6.18652 3.73334H17.8132V20.2667H16.1065V12.6933H16.0898C15.9011 10.6002 14.142 8.95999 11.9999 8.95999C9.85766 8.95999 8.09856 10.6002 7.90992 12.6933H7.89319V20.2667H6.18652V3.73334Z" fill="#25262C"/>
<path id="Vector_2" d="M3.09326 6.07999L3.7866 8.42666H4.37325V17.92C4.0787 17.92 3.83993 18.1588 3.83993 18.4533V19.0933H3.73327C3.43872 19.0933 3.19992 19.3321 3.19992 19.6267V20.2667H9.17325V19.6267C9.17325 19.3321 8.93448 19.0933 8.63993 19.0933H8.53327V18.4533C8.53327 18.1588 8.29447 17.92 7.99992 17.92H7.35993V6.07999H3.09326Z" fill="#25262C"/>
<path id="Vector_3" d="M16.2134 17.92C15.9188 17.92 15.68 18.1588 15.68 18.4533V19.0933H15.5734C15.2788 19.0933 15.04 19.3321 15.04 19.6267V20.2667H21.0134V19.6267C21.0134 19.3321 20.7746 19.0933 20.48 19.0933H20.3734V18.4533C20.3734 18.1588 20.1346 17.92 19.84 17.92V8.42666H20.4267L21.12 6.07999H16.8534V17.92H16.2134Z" fill="#25262C"/>
</g>
</svg>
