<svg width="24" height="24" viewBox="0 0 24 24" fill="none" xmlns="http://www.w3.org/2000/svg">
<g id="Icon/Outline/fire">
<path id="Icon" d="M6.34315 7.34313L7.27275 6.97456C7.14866 6.66158 6.8754 6.43206 6.5457 6.36386C6.216 6.29567 5.87411 6.39796 5.63604 6.63603L6.34315 7.34313ZM4 13L3 13L4 13ZM20 13L21 13L20 13ZM11.9859 3L12.6905 2.29041C12.3291 1.93158 11.7558 1.90163 11.359 2.22086L11.9859 3ZM9.00004 9.99995L8.55283 10.8944C8.86282 11.0494 9.23096 11.0328 9.52578 10.8506C9.82059 10.6684 10 10.3465 10 9.99995H9.00004ZM12.0146 11L12.0194 10C11.5888 9.99792 11.2052 10.2717 11.0673 10.6796L12.0146 11ZM15 14L16 14L15 14ZM10.9999 13.9999L11 14.9999C11.4288 14.9999 11.8099 14.7265 11.9472 14.3203L10.9999 13.9999ZM9 14L8.99997 13C8.44769 13 7.99999 13.4477 8 14L9 14ZM16.9497 17.9497C14.2161 20.6834 9.78392 20.6834 7.05025 17.9497L5.63604 19.3639C9.15076 22.8787 14.8492 22.8787 18.364 19.3639L16.9497 17.9497ZM7.05025 17.9497C5.68322 16.5827 5 14.793 5 13L3 13C3 15.3017 3.87888 17.6068 5.63604 19.3639L7.05025 17.9497ZM5 13C5 11.207 5.68322 9.41727 7.05025 8.05024L5.63604 6.63603C3.87887 8.39319 3 10.6982 3 13L5 13ZM16.9497 8.05024C18.3168 9.41727 19 11.207 19 13L21 13C21 10.6982 20.1211 8.39319 18.364 6.63603L16.9497 8.05024ZM19 13C19 14.793 18.3168 16.5827 16.9497 17.9497L18.364 19.3639C20.1211 17.6068 21 15.3017 21 13L19 13ZM11.2813 3.70959C12.3646 4.78534 13.4639 5.52597 14.4389 6.16916C15.4351 6.82635 16.2536 7.35407 16.9497 8.05024L18.364 6.63603C17.4944 5.76651 16.4845 5.12266 15.5402 4.4997C14.5746 3.86275 13.6213 3.21466 12.6905 2.29041L11.2813 3.70959ZM6.34315 7.34313C5.41355 7.7117 5.4137 7.71209 5.41385 7.71248C5.41391 7.71262 5.41407 7.71302 5.41418 7.7133C5.4144 7.71386 5.41464 7.71444 5.41488 7.71505C5.41537 7.71627 5.4159 7.7176 5.41648 7.71902C5.41763 7.72188 5.41896 7.72514 5.42047 7.72881C5.42349 7.73613 5.42723 7.74507 5.43171 7.75554C5.44067 7.77648 5.45262 7.80358 5.46774 7.83625C5.49795 7.90154 5.54096 7.98935 5.59825 8.09485C5.71266 8.30553 5.88527 8.58902 6.12858 8.90575C6.61539 9.53943 7.39135 10.3136 8.55283 10.8944L9.44726 9.10553C8.60874 8.68627 8.05625 8.13206 7.71461 7.68734C7.5437 7.46486 7.42708 7.27165 7.35582 7.14042C7.32028 7.07497 7.29634 7.02553 7.28282 6.99631C7.27607 6.98172 7.27195 6.97225 7.27031 6.96843C7.26949 6.96652 7.2693 6.96603 7.26971 6.96703C7.26992 6.96753 7.27028 6.9684 7.27078 6.96965C7.27103 6.97028 7.27133 6.971 7.27165 6.97182C7.27182 6.97223 7.27199 6.97266 7.27217 6.97312C7.27226 6.97335 7.27241 6.97371 7.27245 6.97382C7.2726 6.97419 7.27275 6.97456 6.34315 7.34313ZM10 9.99995C10 8.11959 10.4758 5.49837 12.6127 3.77914L11.359 2.22086C8.52426 4.50154 8.00004 7.88032 8.00004 9.99995H10ZM13.4142 15.4142C12.6332 16.1952 11.3668 16.1952 10.5858 15.4142L9.17157 16.8284C10.7337 18.3905 13.2663 18.3905 14.8284 16.8284L13.4142 15.4142ZM12.0097 12C12.5198 12.0024 13.0259 12.1975 13.4142 12.5857L14.8284 11.1715C14.0525 10.3956 13.0351 10.0049 12.0194 10L12.0097 12ZM13.4142 12.5857C13.8049 12.9765 14 13.4866 14 14L16 14C16 12.9778 15.6093 11.9524 14.8284 11.1715L13.4142 12.5857ZM14 14C14 14.5134 13.8049 15.0235 13.4142 15.4142L14.8284 16.8284C15.6093 16.0475 16 15.0221 16 14L14 14ZM11.9472 14.3203L12.9619 11.3204L11.0673 10.6796L10.0527 13.6796L11.9472 14.3203ZM10.5858 15.4142C10.1951 15.0235 10 14.5134 10 14L8 14C8.00001 15.0221 8.39073 16.0475 9.17157 16.8284L10.5858 15.4142ZM10.9999 12.9999L8.99997 13L9.00003 15L11 14.9999L10.9999 12.9999Z" fill="#25262C"/>
</g>
</svg>
