<svg width="72" height="72" viewBox="0 0 72 72" fill="none" xmlns="http://www.w3.org/2000/svg">
<path d="M3.33348 57.2291C3.33348 57.2291 4.4447 55.6734 7.11164 54.5621C9.77858 53.2287 23.78 49.006 33.3366 48.117C33.3366 48.117 38.8927 42.5609 41.7819 41.0052C43.3376 40.1162 44.4488 40.1162 44.4488 40.1162C44.4488 40.1162 44.8933 41.2274 44.4488 41.8942C44.4488 41.8942 44.6711 42.3387 44.4488 43.0054C44.4488 43.0054 44.8933 43.6721 44.4488 44.3389C44.4488 44.3389 44.0043 46.7836 43.1154 48.117C42.6709 48.7838 40.0039 49.895 40.0039 49.895C40.0039 49.895 47.338 51.0062 52.0052 52.3397C56.6723 53.6732 58.4503 53.4509 61.784 51.0062C64.8954 48.5615 68.6736 46.1168 70.007 45.8946C71.3405 45.8946 70.6738 47.2281 70.007 48.5615C69.3403 49.895 68.2291 51.2285 67.3401 52.1175C66.2289 52.7842 64.6731 53.8954 64.8954 55.4511C64.8954 57.0068 64.8954 57.6736 64.2287 58.5626C63.5619 59.4515 65.1176 65.8967 65.1176 67.0079C65.1176 67.8969 64.4509 68.3413 63.5619 67.0079C62.6729 65.8967 59.7838 60.785 58.4503 59.4515C57.1168 58.1181 54.0054 58.5626 53.3386 58.7848C52.6719 59.2293 51.5607 61.4518 50.005 61.8962C48.6715 62.563 45.1156 63.6742 44.2266 65.2299C43.3376 66.7856 43.5599 68.1191 43.5599 69.2303C43.5599 70.3416 42.6709 70.5638 41.3374 68.5636C40.0039 66.5634 38.4482 63.8964 38.4482 63.8964L36.0035 64.5632C36.0035 64.5632 36.2258 64.5632 37.337 65.4522C38.4482 66.1189 38.8927 67.0079 38.8927 67.4524C38.8927 67.8969 35.7813 67.8969 31.1141 66.1189C31.1141 66.1189 17.3349 68.3414 5.77817 62.1185C5.77817 62.1185 5.33368 62.3407 4.88919 61.8962C4.4447 61.2295 3.11122 60.5628 2.66673 59.896C2.22224 59.2293 2.66673 58.7848 2.66673 58.7848C2.66673 58.7848 2 58.1181 2 57.4513C2 56.7846 2.66673 57.0068 2.66673 57.0068L3.33348 57.2291Z" fill="#4E73F6"/>
<path d="M46.2247 61.6738C43.3355 62.785 38.8906 64.1185 38.8906 64.1185C38.8906 64.1185 40.4463 66.7854 41.7798 68.7856C43.1133 70.7858 44.2245 70.5636 44.0023 69.4524C44.0023 68.3411 43.78 67.0077 44.669 65.452C45.558 63.8962 48.8917 62.785 50.4474 62.1183C52.0031 61.4515 52.8921 59.2291 53.781 59.0068C53.781 59.0068 53.7811 59.0068 54.0033 59.0068C51.3364 59.0068 49.3361 60.7848 46.2247 61.896V61.6738Z" fill="#38418C"/>
<path d="M37.7815 65.6751C36.6702 65.0084 36.448 64.7861 36.448 64.7861C34.2255 65.6751 32.0031 66.3419 31.5586 66.3419C36.2257 67.8976 39.3372 68.1198 39.3372 67.6753C39.3372 67.2308 39.1149 66.3419 37.7815 65.6751Z" fill="#38418C"/>
<path d="M43.3393 47.8944C44.2283 46.5609 44.6728 44.1162 44.6728 44.1162C45.1173 43.4495 44.6728 42.7827 44.6728 42.7827C45.1173 42.116 44.6728 41.6715 44.6728 41.6715C44.8951 41.227 44.6728 40.1158 44.6728 39.8936C44.6728 39.8936 43.5616 39.8935 42.0059 40.7825C39.1167 42.5605 33.5605 47.8944 33.5605 47.8944C33.5605 47.8944 37.3387 48.7834 40.2279 49.6723C40.2279 49.6723 42.8948 48.5611 43.3393 47.8944Z" fill="#38418C"/>
<path d="M54.8961 52.7839C54.2294 52.7839 53.3404 52.3394 52.2292 52.1172C52.2292 52.1172 52.0069 52.1172 51.7847 52.1172C47.7843 52.1172 37.561 52.1172 28.4489 53.4507C16.8922 55.4509 12.4473 57.0066 12.4473 57.0066V60.118C12.4473 60.118 20.4481 57.6733 22.2261 57.2288C24.004 56.7843 31.3381 54.7841 36.0053 54.1174C40.6724 53.6729 47.7843 53.2284 50.229 53.0062C52.8959 53.0062 54.6739 52.5617 54.6739 52.5617L54.8961 52.7839Z" fill="#38418C"/>
<path d="M13.1133 59.4542C12.8911 61.2322 11.1131 62.3434 9.55743 62.1212C7.77947 61.8989 6.66824 60.121 6.89048 58.5652C7.11273 56.7873 8.89069 55.6761 10.4464 55.8983C12.2244 56.1205 13.3356 57.8985 13.1133 59.4542Z" fill="#8698B2"/>
<path d="M11.3346 59.2331C11.3346 59.8998 10.4456 60.5666 9.77884 60.3443C9.11211 60.1221 8.44537 59.4553 8.66762 58.7886C8.66762 58.1219 9.5566 57.4551 10.2233 57.6774C10.8901 57.6774 11.5568 58.5664 11.3346 59.2331Z" fill="#1D1D1B"/>
<path d="M60.8961 56.786C60.8961 56.786 60.8961 56.5638 60.8961 56.3415C60.8961 54.3413 60.8961 52.7856 60.8961 51.4521C58.0069 55.2303 49.3394 54.5636 44.0055 55.6748C38.6716 56.786 27.5594 61.0087 27.7816 62.1199C28.0039 63.0089 33.1155 62.5644 37.3381 61.6754C41.3386 60.7864 50.4506 57.675 54.2288 56.786C57.3402 56.1193 59.7849 56.3415 61.1184 56.786H60.8961Z" fill="#38418C"/>
<path d="M70.2299 45.8936C68.8964 45.8936 65.1182 48.5605 62.0068 51.0052C61.5623 51.2274 61.3401 51.4497 60.8956 51.6719C60.8956 53.0054 60.8956 54.5611 60.8956 56.5613C60.8956 58.5615 59.7843 59.895 59.3398 60.5617C60.8956 62.5619 62.8958 66.3401 63.7847 67.2291C64.6737 68.3403 65.5627 68.1181 65.3405 67.2291C65.3405 66.3401 63.5625 59.6728 64.4515 58.7838C65.1182 57.8948 65.1182 57.2281 65.1182 55.6723C65.1182 54.1166 66.4517 53.0054 67.5629 52.3387C68.6741 51.6719 69.5631 50.1162 70.2299 48.7827C70.8966 47.4493 71.5633 46.1158 70.2299 46.1158V45.8936Z" fill="#254E8C"/>
<path d="M44.895 41.6715C45.1173 41.227 44.895 40.1158 44.895 39.8936C44.895 39.8936 44.6728 39.8936 44.2283 39.8936C44.0061 41.227 43.3393 43.4495 42.2281 45.4497C40.8946 47.6721 36.672 47.6721 34.2273 47.4499C33.7828 47.8944 33.5605 48.1166 33.5605 48.1166C33.5605 48.1166 37.3387 49.0056 40.2279 49.8946C40.2279 49.8946 42.8948 48.7834 43.3393 48.1166C44.2283 46.7831 44.6728 44.3385 44.6728 44.3385C45.1173 43.6717 44.6728 43.005 44.6728 43.005C45.1173 42.3382 44.6728 41.8938 44.6728 41.8938L44.895 41.6715Z" fill="#254E8C"/>
<path d="M53.1169 59.2295C53.1169 59.2295 50.6722 61.2297 48.4497 61.8964C46.2273 62.5632 43.3381 63.6744 42.8936 66.3413C42.6714 67.6748 42.0046 68.3416 41.3379 68.5638C41.3379 68.5638 41.3379 68.786 41.5601 69.0083C42.8936 71.0085 44.0048 70.7863 43.7826 69.675C43.7826 68.5638 43.5603 67.2303 44.4493 65.6746C45.3383 64.1189 48.672 63.0077 50.2277 62.3409C51.3389 61.8964 52.4501 60.1185 53.1169 59.4517V59.2295Z" fill="#254E8C"/>
<path d="M37.7798 65.6761C36.6685 65.0094 36.4463 64.7871 36.4463 64.7871C36.8908 65.4538 37.3353 66.1206 37.113 66.7873C37.113 67.2318 36.6685 67.4541 36.4463 67.6763C38.2243 68.1208 39.3355 67.8985 39.3355 67.6763C39.3355 67.2318 39.1132 66.3428 37.7798 65.6761Z" fill="#254E8C"/>
<path d="M64.8394 23.1223C64.8394 23.1223 64.0636 21.7134 61.9444 20.5232C59.847 19.1474 48.5629 14.2453 40.6655 12.5648C40.6655 12.5648 36.5685 7.37733 34.3072 5.79399C33.0947 4.89857 32.1662 4.78952 32.1662 4.78952C32.1662 4.78952 31.6858 5.67435 31.9917 6.27503C31.9917 6.27503 31.7624 6.6246 31.8827 7.20348C31.8827 7.20348 31.4459 7.71693 31.7518 8.31761C31.7518 8.31761 31.8833 10.4038 32.4952 11.6052C32.8012 12.2059 34.9204 13.396 34.9204 13.396C34.9204 13.396 28.6836 13.6048 24.6533 14.2609C20.623 14.917 19.1593 14.5569 16.6138 12.1872C14.2541 9.83926 11.3373 7.42592 10.2449 7.10937C9.13081 6.97852 9.55702 8.15808 9.98324 9.33764C10.4094 10.5172 11.207 11.7404 11.8626 12.5704C12.7256 13.2365 13.9164 14.3176 13.578 15.5956C13.4253 16.8954 13.3599 17.4525 13.8297 18.2607C14.2996 19.0689 12.3673 24.3012 12.2582 25.2296C12.171 25.9724 12.6844 26.4092 13.5581 25.3823C14.4099 24.5411 17.3254 20.5538 18.5704 19.5705C19.8154 18.5872 22.3714 19.2639 22.9067 19.515C23.4201 19.9518 24.1305 21.9178 25.3867 22.4418C26.4354 23.1297 29.2974 24.4071 29.8875 25.7942C30.4776 27.1812 30.161 28.2736 30.052 29.202C29.9429 30.1305 30.6639 30.4034 31.9743 28.863C33.2847 27.3227 34.8462 25.2471 34.8462 25.2471L36.8234 26.0441C36.8234 26.0441 36.6377 26.0223 35.622 26.656C34.6281 27.104 34.1695 27.8031 34.1259 28.1745C34.0823 28.5459 36.6819 28.8512 40.7559 27.8237C40.7559 27.8237 52.0505 31.0327 62.317 26.9675C62.317 26.9675 62.6666 27.1968 63.0816 26.8691C63.5184 26.3556 64.6979 25.9294 65.1347 25.416C65.5715 24.9025 65.2438 24.4875 65.2438 24.4875C65.2438 24.4875 65.8663 23.9959 65.9317 23.4388C65.9971 22.8817 65.4182 23.002 65.4182 23.002L64.8394 23.1223Z" fill="#4E73F6"/>
<path d="M28.5666 22.6297C30.8715 23.8416 34.4544 25.3919 34.4544 25.3919C34.4544 25.3919 32.8929 27.4675 31.5825 29.0079C30.2721 30.5482 29.3654 30.2535 29.6602 29.3469C29.7692 28.4184 30.0858 27.3261 29.4957 25.939C28.9056 24.552 26.2293 23.2964 24.9949 22.5867C23.7605 21.8769 23.2358 19.9328 22.5149 19.6599C22.5149 19.6599 22.5149 19.6599 22.3292 19.6381C24.5575 19.8998 26.0542 21.5816 28.5448 22.8154L28.5666 22.6297Z" fill="#38418C"/>
<path d="M35.2281 26.8001C36.222 26.352 36.4295 26.1882 36.4295 26.1882C38.1991 27.149 39.9906 27.9242 40.362 27.9678C36.3099 28.8096 33.6884 28.69 33.732 28.3186C33.7756 27.9472 34.0486 27.2263 35.2281 26.8001Z" fill="#38418C"/>
<path d="M32.3307 11.399C31.7188 10.1977 31.5873 8.11145 31.5873 8.11145C31.2814 7.51077 31.7182 6.99732 31.7182 6.99732C31.4122 6.39664 31.8272 6.06888 31.8272 6.06888C31.6851 5.67569 31.9799 4.76906 32.0017 4.58337C32.0017 4.58337 32.9301 4.69241 34.1427 5.58783C36.3822 7.35686 40.501 12.3586 40.501 12.3586C40.501 12.3586 37.2571 12.7306 34.7559 13.1899C34.7559 13.1899 32.6366 11.9997 32.3307 11.399Z" fill="#38418C"/>
<path d="M22.1955 14.3495C22.7526 14.4149 23.539 14.1308 24.4892 14.0542C24.4892 14.0542 24.6749 14.076 24.8606 14.0978C28.203 14.4903 36.7447 15.4936 44.2271 17.5019C53.6866 20.3072 57.2477 22.0432 57.2477 22.0432L56.9424 24.6428C56.9424 24.6428 50.4975 21.8151 49.0556 21.2692C47.6137 20.7234 41.6823 18.3325 37.8482 17.3174C33.9924 16.4881 28.0939 15.4188 26.0732 14.9932C23.8449 14.7315 22.403 14.1856 22.403 14.1856L22.1955 14.3495Z" fill="#38418C"/>
<path d="M56.4499 24.0228C56.4611 25.5301 57.8375 26.633 59.1592 26.6C60.6665 26.5888 61.7694 25.2123 61.7364 23.8906C61.7252 22.3833 60.3487 21.2804 59.0271 21.3134C57.5198 21.3246 56.4168 22.7011 56.4499 24.0228Z" fill="#8698B2"/>
<path d="M57.9573 24.0126C57.8918 24.5697 58.5692 25.214 59.1481 25.0937C59.7269 24.9735 60.3494 24.4818 60.2292 23.903C60.2946 23.3459 59.6173 22.7016 59.0384 22.8219C58.4813 22.7564 57.837 23.4338 57.9573 24.0126Z" fill="#1D1D1B"/>
<path d="M16.7886 17.1041C16.7886 17.1041 16.8104 16.9184 16.8322 16.7327C17.0285 15.0615 17.1812 13.7617 17.312 12.6476C19.3552 16.0878 26.6625 16.3813 31.01 17.8332C35.3575 19.285 44.2276 23.9036 43.9328 24.8102C43.6599 25.5312 39.4327 24.6582 35.9918 23.501C32.7367 22.3657 25.4287 18.8719 22.3593 17.7584C19.8251 16.896 17.7607 16.8418 16.6029 17.0823L16.7886 17.1041Z" fill="#38418C"/>
<path d="M10.0604 7.0876C11.1746 7.21845 14.0696 9.81748 16.4293 12.1654C16.7789 12.3947 16.9427 12.6022 17.2923 12.8315C17.1615 13.9456 17.0088 15.2455 16.8125 16.9167C16.6162 18.5879 17.4138 19.811 17.7198 20.4117C16.2237 21.9303 14.1817 24.8907 13.3517 25.5462C12.4999 26.3874 11.779 26.1145 12.0519 25.3935C12.1391 24.6508 14.2789 19.2546 13.6234 18.4246C13.1536 17.6164 13.219 17.0594 13.3717 15.7595C13.5243 14.4597 12.5192 13.4004 11.6562 12.7343C10.7932 12.0682 10.2031 10.6811 9.7769 9.50156C9.35068 8.322 8.92447 7.14244 10.0386 7.27329L10.0604 7.0876Z" fill="#254E8C"/>
<path d="M31.6415 6.04707C31.4995 5.65388 31.7942 4.74725 31.816 4.56156C31.816 4.56156 32.0017 4.58337 32.3731 4.62699C32.4279 5.76293 32.7669 7.68525 33.499 9.46549C34.3951 11.4532 37.9232 11.8676 39.9876 11.9218C40.3153 12.3368 40.4792 12.5443 40.4792 12.5443C40.4792 12.5443 37.2352 12.9163 34.734 13.3756C34.734 13.3756 32.6148 12.1854 32.3089 11.5847C31.697 10.3833 31.5655 8.29715 31.5655 8.29715C31.2595 7.69646 31.6964 7.18301 31.6964 7.18301C31.3904 6.58232 31.8054 6.25456 31.8054 6.25456L31.6415 6.04707Z" fill="#254E8C"/>
<path d="M23.0481 19.9086C23.0481 19.9086 24.8944 21.8197 26.6859 22.5948C28.4774 23.37 30.7823 24.582 30.8919 26.8538C30.9468 27.9898 31.4384 28.6123 31.9737 28.8634C31.9737 28.8634 31.9519 29.0491 31.7444 29.213C30.4339 30.7533 29.5273 30.4586 29.822 29.5519C29.9311 28.6235 30.2476 27.5312 29.6575 26.1441C29.0674 24.757 26.3912 23.5015 25.1568 22.7917C24.2719 22.3113 23.518 20.7168 23.0263 20.0943L23.0481 19.9086Z" fill="#254E8C"/>
<path d="M35.2303 26.8004C36.2241 26.3524 36.4316 26.1885 36.4316 26.1885C35.9948 26.7019 35.558 27.2154 35.6783 27.7943C35.6347 28.1656 35.9842 28.3949 36.1481 28.6024C34.619 28.7993 33.7124 28.5046 33.7342 28.3189C33.7778 27.9475 34.0507 27.2266 35.2303 26.8004Z" fill="#254E8C"/>
<circle cx="9" cy="50" r="2" fill="#AFB2CA"/>
<circle cx="63.5" cy="10.5" r="2.5" fill="#AFB2CA"/>
<circle cx="11" cy="43" r="1" fill="#AFB2CA"/>
<circle cx="56" cy="3" r="1" fill="#AFB2CA"/>
</svg>
