<svg width="24" height="24" viewBox="0 0 24 24" fill="none" xmlns="http://www.w3.org/2000/svg">
<g id="Icon/Outline/flag">
<path id="Icon" d="M2 21C2 21.5523 2.44772 22 3 22C3.55228 22 4 21.5523 4 21H2ZM11.5 3L12.2071 2.29289C12.0196 2.10536 11.7652 2 11.5 2V3ZM12.5 4L11.7929 4.70711C11.9804 4.89464 12.2348 5 12.5 5V4ZM21 4L21.8944 4.44721C22.0494 4.13723 22.0329 3.76909 21.8507 3.47427C21.6684 3.17945 21.3466 3 21 3V4ZM18 10L17.1056 9.55279C16.9648 9.83431 16.9648 10.1657 17.1056 10.4472L18 10ZM21 16V17C21.3466 17 21.6684 16.8205 21.8507 16.5257C22.0329 16.2309 22.0494 15.8628 21.8944 15.5528L21 16ZM12.5 16L11.7929 16.7071C11.9804 16.8946 12.2348 17 12.5 17V16ZM11.5 15L12.2071 14.2929C12.0196 14.1054 11.7652 14 11.5 14V15ZM13 3.5C13 2.94772 12.5523 2.5 12 2.5C11.4477 2.5 11 2.94772 11 3.5H13ZM11 9C11 9.55228 11.4477 10 12 10C12.5523 10 13 9.55228 13 9H11ZM4 21V17H2V21H4ZM4 17V5H2V17H4ZM5 4H11.5V2H5V4ZM10.7929 3.70711L11.7929 4.70711L13.2071 3.29289L12.2071 2.29289L10.7929 3.70711ZM12.5 5H21V3H12.5V5ZM20.1056 3.55279L17.1056 9.55279L18.8944 10.4472L21.8944 4.44721L20.1056 3.55279ZM17.1056 10.4472L20.1056 16.4472L21.8944 15.5528L18.8944 9.55279L17.1056 10.4472ZM21 15H12.5V17H21V15ZM13.2071 15.2929L12.2071 14.2929L10.7929 15.7071L11.7929 16.7071L13.2071 15.2929ZM11.5 14H5V16H11.5V14ZM5 14C3.34315 14 2 15.3431 2 17H4C4 16.4477 4.44772 16 5 16V14ZM4 5C4 4.44772 4.44772 4 5 4V2C3.34315 2 2 3.34315 2 5H4ZM11 3.5V9H13V3.5H11Z" fill="#25262C"/>
</g>
</svg>
