<svg width="24" height="24" viewBox="0 0 24 24" fill="none" xmlns="http://www.w3.org/2000/svg">
<path d="M20 12C20 16.4183 16.4183 20 12 20V22C17.5228 22 22 17.5228 22 12H20ZM12 20C7.58172 20 4 16.4183 4 12H2C2 17.5228 6.47715 22 12 22V20ZM4 12C4 7.58172 7.58172 4 12 4V2C6.47715 2 2 6.47715 2 12H4ZM12 4C16.4183 4 20 7.58172 20 12H22C22 6.47715 17.5228 2 12 2V4ZM14 12C14 14.4077 13.6732 16.546 13.1726 18.0477C12.9206 18.8038 12.6425 19.3436 12.3823 19.6738C12.2545 19.8359 12.1506 19.9225 12.0814 19.9649C12.0485 19.9852 12.0264 19.9935 12.0153 19.9969C12.0049 20.0001 12.0007 20 12 20V22C12.8519 22 13.5044 21.4811 13.9531 20.9117C14.4108 20.331 14.7791 19.5528 15.07 18.6802C15.6552 16.9246 16 14.5629 16 12H14ZM12 20C11.9993 20 11.9951 20.0001 11.9847 19.9969C11.9736 19.9935 11.9515 19.9852 11.9186 19.9649C11.8494 19.9225 11.7455 19.8359 11.6177 19.6738C11.3575 19.3436 11.0794 18.8038 10.8274 18.0477C10.3268 16.546 10 14.4077 10 12H8C8 14.5629 8.3448 16.9246 8.93 18.6802C9.22085 19.5528 9.58923 20.331 10.0469 20.9117C10.4956 21.4811 11.1481 22 12 22V20ZM10 12C10 9.59229 10.3268 7.45402 10.8274 5.95227C11.0794 5.19616 11.3575 4.65642 11.6177 4.32624C11.7455 4.16408 11.8494 4.07752 11.9186 4.03507C11.9515 4.01483 11.9736 4.00645 11.9847 4.00305C11.9951 3.9999 11.9993 4 12 4V2C11.1481 2 10.4956 2.51889 10.0469 3.08829C9.58923 3.66896 9.22085 4.44724 8.93 5.31981C8.3448 7.07541 8 9.43715 8 12H10ZM12 4C12.0007 4 12.0049 3.9999 12.0153 4.00305C12.0264 4.00645 12.0485 4.01483 12.0814 4.03507C12.1506 4.07752 12.2545 4.16408 12.3823 4.32624C12.6425 4.65642 12.9206 5.19616 13.1726 5.95227C13.6732 7.45402 14 9.59229 14 12H16C16 9.43715 15.6552 7.07541 15.07 5.31981C14.7791 4.44724 14.4108 3.66896 13.9531 3.08829C13.5044 2.51889 12.8519 2 12 2V4ZM3 13H21V11H3V13Z" fill="#25262C"/>
</svg>
