<svg width="24" height="24" viewBox="0 0 24 24" fill="none" xmlns="http://www.w3.org/2000/svg">
<g id="Icon/Outline/newspaper">
<path id="Icon" d="M15 4V5V4ZM5 4V3V4ZM3 6H4H3ZM3 18H2H3ZM5 20V21V20ZM19 20V19V20ZM17 6H16H17ZM17 18H16H17ZM21 9H20H21ZM19 7V8V7ZM21 18H22H21ZM13 5C13.5523 5 14 4.55229 14 4C14 3.44772 13.5523 3 13 3V5ZM9 3C8.44772 3 8 3.44772 8 4C8 4.55228 8.44772 5 9 5V3ZM7 8V7C6.44772 7 6 7.44772 6 8H7ZM13 8H14C14 7.44772 13.5523 7 13 7V8ZM7 12H6C6 12.5523 6.44772 13 7 13V12ZM13 12V13C13.5523 13 14 12.5523 14 12H13ZM7 15C6.44772 15 6 15.4477 6 16C6 16.5523 6.44772 17 7 17V15ZM13 17C13.5523 17 14 16.5523 14 16C14 15.4477 13.5523 15 13 15V17ZM15 3L5 3V5L15 5V3ZM2 6L2 18H4L4 6H2ZM5 21H19V19H5V21ZM18 7V6H16V7H18ZM2 18C2 19.6569 3.34315 21 5 21V19C4.44772 19 4 18.5523 4 18H2ZM5 3C3.34315 3 2 4.34314 2 6H4C4 5.44771 4.44772 5 5 5V3ZM15 5C15.5523 5 16 5.44772 16 6H18C18 4.34314 16.6569 3 15 3V5ZM22 18V9H20V18H22ZM19 6L17 6V8H19V6ZM16 7L16 18H18L18 7H16ZM16 18C16 19.6569 17.3431 21 19 21V19C18.4477 19 18 18.5523 18 18H16ZM22 9C22 7.34315 20.6569 6 19 6V8C19.5523 8 20 8.44772 20 9H22ZM20 18C20 18.5523 19.5523 19 19 19V21C20.6569 21 22 19.6569 22 18H20ZM13 3L9 3V5L13 5V3ZM7 9H13V7H7V9ZM7 13H13V11H7V13ZM7 17H13V15H7V17ZM6 8V12H8V8H6ZM14 12V8H12V12H14Z" fill="#25262C"/>
</g>
</svg>
