<svg width="24" height="24" viewBox="0 0 24 24" fill="none" xmlns="http://www.w3.org/2000/svg">
<g id="Icon/Outline/plus-sm">
<path id="Icon" d="M13 6C13 5.44772 12.5523 5 12 5C11.4477 5 11 5.44772 11 6H13ZM11 18C11 18.5523 11.4477 19 12 19C12.5523 19 13 18.5523 13 18H11ZM18 13C18.5523 13 19 12.5523 19 12C19 11.4477 18.5523 11 18 11V13ZM6 11C5.44772 11 5 11.4477 5 12C5 12.5523 5.44772 13 6 13L6 11ZM11 6V12H13V6H11ZM11 12V18H13V12H11ZM18 11H12V13H18V11ZM12 11L6 11L6 13L12 13V11Z" fill="#0E255D"/>
</g>
</svg>
