<svg width="32" height="32" viewBox="0 0 32 32" fill="none" xmlns="http://www.w3.org/2000/svg">
<g id="Icon/Outline/puzzle">
<path id="Icon" d="M17.3334 1.66669C15.3084 1.66669 13.6667 3.30831 13.6667 5.33335H15.6667C15.6667 4.41288 16.4129 3.66669 17.3334 3.66669V1.66669ZM21.0001 5.33335C21.0001 3.30831 19.3585 1.66669 17.3334 1.66669V3.66669C18.2539 3.66669 19.0001 4.41288 19.0001 5.33335H21.0001ZM21.0001 6.66669V5.33335H19.0001V6.66669H21.0001ZM21.3334 9.00002H25.3334V7.00002H21.3334V9.00002ZM25.3334 9.00002C25.5175 9.00002 25.6668 9.14926 25.6668 9.33335H27.6668C27.6668 8.04469 26.6221 7.00002 25.3334 7.00002V9.00002ZM25.6668 9.33335V13.3334H27.6668V9.33335H25.6668ZM25.3334 13.6667H24.0001V15.6667H25.3334V13.6667ZM24.0001 13.6667C21.975 13.6667 20.3334 15.3083 20.3334 17.3334H22.3334C22.3334 16.4129 23.0796 15.6667 24.0001 15.6667V13.6667ZM20.3334 17.3334C20.3334 19.3584 21.975 21 24.0001 21V19C23.0796 19 22.3334 18.2538 22.3334 17.3334H20.3334ZM24.0001 21H25.3334V19H24.0001V21ZM25.6668 21.3334V25.3334H27.6668V21.3334H25.6668ZM25.6668 25.3334C25.6668 25.5174 25.5175 25.6667 25.3334 25.6667V27.6667C26.6221 27.6667 27.6668 26.622 27.6668 25.3334H25.6668ZM25.3334 25.6667H21.3334V27.6667H25.3334V25.6667ZM21.0001 25.3334V24H19.0001V25.3334H21.0001ZM21.0001 24C21.0001 21.975 19.3585 20.3334 17.3334 20.3334V22.3334C18.2539 22.3334 19.0001 23.0795 19.0001 24H21.0001ZM17.3334 20.3334C15.3084 20.3334 13.6667 21.975 13.6667 24H15.6667C15.6667 23.0795 16.4129 22.3334 17.3334 22.3334V20.3334ZM13.6667 24V25.3334H15.6667V24H13.6667ZM13.3334 25.6667H9.33342V27.6667H13.3334V25.6667ZM9.33342 25.6667C9.14932 25.6667 9.00008 25.5174 9.00008 25.3334H7.00008C7.00008 26.622 8.04475 27.6667 9.33342 27.6667V25.6667ZM9.00008 25.3334V21.3334H7.00008V25.3334H9.00008ZM5.33341 21H6.66675V19H5.33341V21ZM1.66675 17.3334C1.66675 19.3584 3.30837 21 5.33341 21V19C4.41294 19 3.66675 18.2538 3.66675 17.3334H1.66675ZM5.33342 13.6667C3.30837 13.6667 1.66675 15.3083 1.66675 17.3334H3.66675C3.66675 16.4129 4.41294 15.6667 5.33342 15.6667V13.6667ZM6.66675 13.6667H5.33342V15.6667H6.66675V13.6667ZM9.00008 13.3334V9.33335H7.00008V13.3334H9.00008ZM9.00008 9.33335C9.00008 9.14926 9.14932 9.00002 9.33342 9.00002V7.00002C8.04475 7.00002 7.00008 8.04469 7.00008 9.33335H9.00008ZM9.33342 9.00002H13.3334V7.00002H9.33342V9.00002ZM13.6667 5.33335V6.66669H15.6667V5.33335H13.6667ZM13.3334 9.00002C14.6221 9.00002 15.6667 7.95535 15.6667 6.66669H13.6667C13.6667 6.85078 13.5175 7.00002 13.3334 7.00002V9.00002ZM9.00008 21.3334C9.00008 20.0447 7.95541 19 6.66675 19V21C6.85084 21 7.00008 21.1493 7.00008 21.3334H9.00008ZM25.6668 13.3334C25.6668 13.5174 25.5175 13.6667 25.3334 13.6667V15.6667C26.6221 15.6667 27.6668 14.622 27.6668 13.3334H25.6668ZM13.6667 25.3334C13.6667 25.5174 13.5175 25.6667 13.3334 25.6667V27.6667C14.6221 27.6667 15.6667 26.622 15.6667 25.3334H13.6667ZM25.3334 21C25.5175 21 25.6668 21.1493 25.6668 21.3334H27.6668C27.6668 20.0447 26.6221 19 25.3334 19V21ZM6.66675 15.6667C7.95541 15.6667 9.00008 14.622 9.00008 13.3334H7.00008C7.00008 13.5174 6.85084 13.6667 6.66675 13.6667V15.6667ZM21.3334 25.6667C21.1493 25.6667 21.0001 25.5174 21.0001 25.3334H19.0001C19.0001 26.622 20.0448 27.6667 21.3334 27.6667V25.6667ZM19.0001 6.66669C19.0001 7.95535 20.0448 9.00002 21.3334 9.00002V7.00002C21.1493 7.00002 21.0001 6.85078 21.0001 6.66669H19.0001Z" fill="#4F4E61"/>
</g>
</svg>
