<svg width="72" height="72" viewBox="0 0 72 72" fill="none" xmlns="http://www.w3.org/2000/svg">
<path d="M57.5776 40.7427C56.0915 40.3175 54.907 41.8322 53.9378 42.9482C53.3994 43.5594 52.2795 44.7285 51.5041 43.9845C50.9873 43.4796 51.138 42.337 51.3534 41.6993C51.9995 39.7861 53.9378 38.8295 55.0362 37.3149C55.4239 36.7834 55.3593 35.9863 54.8639 35.5877C54.4547 35.2688 54.0455 35.0297 53.6148 34.8702C54.1532 34.0996 54.95 33.5948 55.6392 33.0633C56.6945 32.213 57.9221 31.1767 58.2237 29.5824C58.5252 28.0146 57.5991 26.686 56.3284 26.6063C55.8115 26.5797 55.3808 26.7126 54.9931 26.9517C55.3162 25.2511 55.2731 23.5505 54.3685 22.0093C53.8086 21.0792 52.904 20.3352 51.9349 20.7604C50.9011 21.2121 50.4488 22.7001 50.1258 23.8693C49.6735 25.4637 49.5443 27.1643 49.6089 28.8383C49.6089 29.2103 49.695 29.6886 49.652 30.0872C49.4581 29.7152 49.2858 29.3432 49.1135 28.9446C48.9412 28.546 48.7905 28.1475 48.6613 27.7223C48.6182 26.7391 48.6613 25.7294 48.7043 24.8259C48.812 22.9659 49.1351 21.159 49.6089 19.4052C50.1473 17.3326 50.578 14.011 48.2305 13.3467C45.883 12.709 44.7846 15.7382 44.4616 18.05C44.3754 17.6514 44.2677 17.2263 44.1816 16.8277C43.8154 15.3396 44.0308 14.5425 45.0215 13.6124C45.8615 12.8153 46.6799 12.0181 47.369 11.0349C48.209 9.83919 50.0396 6.65052 48.4674 5.3219C46.9383 4.01987 44.6769 6.96938 43.8154 8.24485C43.2555 9.04202 42.8032 10.2112 42.0925 10.8224C41.5756 11.2741 41.4033 11.0084 41.0587 10.4769C40.7787 10.0518 40.5418 9.65318 40.1542 9.38746C38.5389 8.27142 36.859 10.3175 36.9667 12.337C37.139 15.4459 40.7141 16.3494 40.4557 19.4318C40.3265 20.8667 39.7665 22.2218 39.5942 23.6567C39.4219 25.0917 39.6588 26.4203 40.1111 27.7489C40.6926 29.4761 41.4464 30.8047 41.0372 32.7445C40.7572 34.0199 40.2403 35.2422 39.5942 36.2786C38.9266 37.3149 38.1082 38.2183 37.2036 38.9092C37.8712 37.1023 38.4312 35.2422 38.6466 33.2493C38.7758 32.0801 38.8835 30.5655 38.4958 29.4495C38.1512 28.4663 37.2467 27.988 36.4929 28.6789C35.7606 29.3432 35.5022 30.6984 35.2653 31.7081C34.9207 33.1696 34.7053 34.6577 34.3607 36.0926C34.0161 37.554 33.4562 38.7764 32.8101 40.0518C32.1424 41.3804 31.6255 42.7888 31.2379 44.2768C31.1517 44.5691 31.0871 44.8614 31.0225 45.1537C30.8717 45.2866 30.6994 45.4194 30.5487 45.5257C30.1395 45.8446 29.9672 46.6683 30.3764 47.0935C30.4195 47.12 30.441 47.1732 30.4841 47.1997C29.9672 49.1661 29.4288 51.1324 28.675 53.0191C28.5673 53.2582 28.4811 53.5505 28.3519 53.7897C28.1365 54.2414 28.1365 54.5603 27.6627 54.2148C27.2105 53.8694 27.0382 52.9659 26.9305 52.3813C26.672 50.8136 26.952 49.1661 27.4043 47.7046C28.2873 44.8348 29.9887 42.4433 31.1517 39.733C32.2932 37.0492 32.7024 34.1262 33.37 31.2564C34.0377 28.3866 34.9853 25.7294 35.3083 22.7267C35.6314 19.6709 35.5668 16.5885 35.5453 13.5327C35.5453 11.8852 35.5453 10.2378 35.5237 8.59029C35.5237 7.23511 35.6314 5.74706 35.2868 4.44502C34.7699 2.50525 32.6593 1.0172 31.324 2.79754C30.764 3.56814 30.6779 4.6576 30.721 5.64077C30.7856 7.23511 31.0225 8.82944 31.1948 10.3972C31.3671 11.9384 31.4963 13.4796 31.4532 15.0473C31.4532 15.8179 31.3671 16.562 31.3025 17.306C31.2379 17.9437 31.324 19.2989 30.6779 19.3255C29.7518 19.352 28.6534 17.4654 28.1365 16.6948C27.9427 16.4025 27.7489 16.1102 27.555 15.8179C27.835 14.3033 28.0935 12.7887 28.2873 11.2741C28.4811 9.67975 28.8473 7.79312 28.4596 6.19879C28.1365 4.87018 27.0382 3.91358 25.9182 4.55131C24.7122 5.24219 24.5614 6.96938 24.7768 8.37771C24.9275 9.36089 25.0352 10.1846 24.8199 11.1944C24.8199 11.2475 24.8199 11.2741 24.7983 11.3272C23.7645 9.65318 22.257 7.68684 21.0078 9.65318C19.6079 11.8587 21.8262 14.8879 23.0107 16.376L23.0538 16.4291C22.7523 17.5451 22.4939 18.6612 22.3216 19.8038C22.0201 21.7701 22.02 23.6833 21.9554 25.6762C21.9554 25.8091 21.9339 25.942 21.9554 26.0748C21.7616 25.7825 21.5462 25.5168 21.3524 25.2245C20.7709 24.4008 20.2325 23.5505 19.6294 22.7533C18.8326 21.717 17.5619 20.9995 16.6143 22.1687C15.7959 23.1784 15.882 24.7728 16.3128 25.9685C16.4851 26.4468 18.5095 30.1669 18.6603 30.0607C18.5311 30.1669 16.9589 29.0509 16.7004 28.9181C16.0328 28.5726 15.2574 28.174 14.5252 28.174C13.0607 28.174 12.5438 30.2467 13.4483 31.5221C13.9652 32.2396 14.7406 32.6116 15.4082 33.0368C16.2697 33.5948 17.1312 34.1262 17.9926 34.6842C19.4787 35.6143 20.9432 36.624 21.5893 38.6169C22.0416 40.0252 22.0631 41.593 21.6755 43.0013C21.2232 41.8056 20.5771 40.7161 19.5218 40.2644C18.2295 39.7064 16.5927 40.2113 15.9897 41.8322C15.8174 42.2573 15.8174 42.8153 16.1189 43.1608C16.9158 44.0642 17.7773 44.8614 18.7034 45.5257C18.5741 45.5788 18.4449 45.6586 18.3372 45.7383C17.7773 46.19 17.4327 46.9075 17.4542 47.7312C17.5188 49.9367 19.6294 50.4681 20.7278 51.717C22.1708 53.3379 23.3123 55.4371 24.5399 57.2972C25.1644 58.2538 25.8106 59.237 26.1767 60.3796C26.5643 61.6019 26.4782 62.8508 26.3921 64.1528C26.2628 66.066 26.2628 68.1387 27.3397 69.6799C28.3304 71.1148 29.8164 71.2742 31.1948 70.663C31.927 70.3442 32.5947 69.8393 33.3269 69.547C34.3607 69.1484 35.0284 69.7064 36.0191 69.9987C37.3328 70.3973 38.9696 70.0519 39.3788 68.2184C39.4865 67.7135 39.3788 66.9695 39.6588 66.5709C39.9173 66.1723 40.4557 66.0926 40.8433 66.066C41.9417 65.9863 42.9755 66.438 44.0739 66.0926C45.1507 65.7472 46.0984 64.4717 46.1414 63.1165C46.6368 63.0368 47.1321 62.9571 47.6275 62.8774C48.2736 62.7711 48.9843 62.6914 49.4581 62.0271C50.3627 60.7782 49.5658 59.0775 48.489 58.493C47.7352 58.0944 46.9814 58.4398 46.2276 58.2272C45.3446 57.9615 45.5384 56.7392 45.9907 56.0483C46.4214 55.3309 47.0675 54.8791 47.6706 54.3743C48.5105 53.6834 49.3504 52.9659 50.1688 52.2485C51.7195 50.9199 53.2702 49.5381 54.7993 48.1564C56.0484 47.0137 57.836 45.9243 58.6544 44.2237C59.322 42.8685 59.0421 41.0084 57.6422 40.6098L57.5776 40.7427ZM47.0244 7.73998C47.0244 7.79312 47.0029 7.84627 46.9814 7.87284C46.9383 7.97913 46.8952 8.08542 46.8522 8.19171C46.8091 8.11199 46.7875 8.03227 46.7229 7.95256C46.8306 7.87284 46.9168 7.79312 47.0244 7.71341V7.73998ZM32.3793 27.9349C32.4655 27.7223 32.5301 27.5097 32.6162 27.2971C32.5301 27.616 32.4439 27.9349 32.3578 28.2537C32.3578 28.1475 32.3793 28.0412 32.4009 27.9349H32.3793ZM15.9682 31.0438C15.8389 30.9641 15.7097 30.8578 15.559 30.7781C15.8389 30.911 16.1189 31.0438 16.3989 31.2033C16.3989 31.2564 16.3989 31.283 16.3989 31.3361C16.2481 31.2564 16.0974 31.1501 15.9466 31.0438H15.9682ZM25.3367 39.8658C24.6906 38.5372 24.6906 36.7037 24.6476 35.2422C24.6045 33.1962 24.7552 31.1767 25.0137 29.1572C25.3798 26.4468 25.9182 23.763 26.4782 21.1058C27.2105 22.1687 27.8996 23.2847 28.5242 24.4539C29.8595 26.8986 29.1919 30.4858 28.5673 33.1696C28.4596 33.6479 28.3304 34.1262 28.1796 34.6045C27.9212 35.2422 27.6627 35.88 27.4474 36.5443C27.4474 36.5709 27.4258 36.624 27.4043 36.6506C26.8659 37.8463 26.1767 38.9624 25.3367 39.8924V39.8658ZM47.9505 60.7516C47.9505 60.7516 47.7567 60.7782 47.5198 60.8047C47.5198 60.7516 47.5198 60.6984 47.5198 60.6453C47.7782 60.6719 47.9721 60.6984 47.9505 60.7516ZM51.3103 37.2086C51.3534 37.1023 51.418 36.9694 51.4611 36.8632C51.5041 36.996 51.5903 37.1023 51.698 37.2352C51.5687 37.1023 51.4395 37.1289 51.3103 37.2352V37.2086ZM44.3539 21.2652C44.44 22.7267 44.6338 24.1882 44.7846 25.6497C44.3754 25.1979 43.9662 24.7196 43.8154 24.1351C43.6001 23.2847 44.0524 22.2218 44.3754 21.2918L44.3539 21.2652ZM43.2339 26.7923C43.277 26.8454 43.3201 26.9251 43.3847 26.9783C43.3416 26.9783 43.2986 26.9783 43.2339 26.9783C43.2339 26.9251 43.2339 26.8454 43.2339 26.7923ZM49.0705 37.4212C48.2951 38.8561 47.6921 40.477 47.3044 42.151C46.8952 43.9048 46.7875 45.818 46.1414 47.492C45.7107 48.6081 45.0431 49.5115 44.2893 50.3087C44.4185 49.4584 44.72 48.5549 44.7631 47.8906C44.8277 46.6417 44.3539 45.3663 43.3416 44.9677C42.2648 44.5425 41.1449 45.2865 40.4772 46.2963C39.5511 47.7046 39.745 49.5115 39.5081 51.2122C38.1082 51.5842 36.9882 53.2051 37.0744 55.0651C37.139 56.3672 37.8712 57.1909 38.3235 58.2804C38.4312 58.5195 38.7327 59.2901 38.4958 59.5293C38.3235 59.6887 37.9143 59.2104 37.7636 59.051C36.7513 58.0678 35.1576 56.8986 34.3176 58.9181C33.93 59.8481 34.1238 60.911 34.5546 61.7613C34.6622 61.9739 34.813 62.2928 34.9638 62.4522C35.0284 62.5054 35.0714 62.5585 35.1145 62.6116C34.533 62.8508 33.4562 62.7977 33.0254 62.7179C31.6901 62.4256 31.5178 61.3096 31.6901 59.8216C31.884 58.0678 32.0993 56.314 32.3147 54.5603C32.487 53.1519 32.6162 51.7436 32.8101 50.3618C33.0254 48.7941 33.6715 48.0235 34.7915 47.306C37.0313 45.8977 39.3788 44.7285 41.6617 43.3999C42.4802 42.9216 43.2986 42.337 43.8154 41.3539C44.3539 40.3441 44.4185 39.1218 44.44 37.926C44.4831 36.438 44.7415 35.1625 45.1938 33.7808C45.3446 33.3025 45.5169 32.8242 45.6461 32.3459C46.2276 33.3822 47.0891 34.0731 47.929 34.7374C48.4459 35.136 49.1566 35.508 49.5443 36.0926C49.5443 36.0926 49.7381 36.3848 49.7596 36.3051C49.695 36.5974 49.1566 37.2617 49.0489 37.4743L49.0705 37.4212Z" fill="#FF7D4A"/>
<g style="mix-blend-mode:multiply" opacity="0.2">
<path d="M27.361 4.52402C26.3488 3.99258 25.4012 4.92261 24.9704 6.01207C24.7335 6.62323 24.6043 7.31411 24.6689 7.97842C24.712 8.50986 24.8843 9.01473 24.9274 9.54618C24.9704 10.1042 24.8843 10.6622 24.8843 11.2202C24.8628 11.2734 24.8412 11.3265 24.8843 11.4062C25.1427 12.2034 25.595 12.8677 26.0042 13.5586C26.4134 14.276 26.8226 14.9935 27.2749 15.6578C27.5118 16.0032 27.9641 15.5515 27.7702 15.1795C27.7056 15.0732 27.641 14.9403 27.5764 14.8341C27.6841 14.7809 27.7918 14.6746 27.8133 14.5152C28.2656 12.6551 28.5671 10.5028 28.6317 8.563C28.6748 7.26096 28.5456 5.10861 27.4041 4.52402H27.361Z" fill="#7E1910"/>
</g>
<g style="mix-blend-mode:multiply" opacity="0.2">
<path d="M26.4137 20.7864C25.9183 20.1221 25.423 19.4578 24.9276 18.8201C24.4107 18.1558 23.7861 17.4915 23.3339 16.7475C23.2477 16.6146 22.9893 16.6146 23.0108 16.8537C23.0108 17.0132 23.0539 17.146 23.1185 17.3055C23.0539 17.332 23.0108 17.3852 22.9677 17.4649C22.3216 18.5278 22.257 20.1487 22.1493 21.4242C21.9986 23.0185 21.9555 24.6394 22.0201 26.2337C21.2232 24.9848 20.3833 23.8157 19.4141 22.7528C18.6388 21.9025 17.7343 21.1319 16.7436 22.0088C14.5468 24.0017 17.1743 28.3329 18.6388 29.9273C17.9927 30.1133 16.2697 28.8112 15.7529 28.5721C15.1498 28.3064 14.4391 28.0141 13.8361 28.3861C13.19 28.7581 13.0392 29.3693 13.1469 30.007C13.0607 30.1664 13.0607 30.379 13.0823 30.565C13.1469 31.0965 13.4699 31.6279 13.9007 31.8139C13.9222 31.8139 13.9438 31.8139 13.9653 31.8139C14.0084 31.8139 14.0299 31.8671 14.073 31.8671C14.1591 31.9733 14.2237 32.0531 14.3099 32.1328C16.9159 34.79 23.3123 36.2249 21.7832 41.9911C21.7186 42.2037 21.8478 42.3631 21.9986 42.3897C21.934 42.4428 21.8694 42.4959 21.7832 42.5491C21.5678 42.7085 21.7617 43.0805 21.977 42.9743C23.2262 42.3099 24.3892 41.2736 25.5091 40.317C25.7891 40.0779 25.5952 39.5464 25.3153 39.5996C23.9154 33.7005 25.2722 27.2701 26.3706 21.4507C26.3706 21.4242 26.3706 21.371 26.3706 21.3444C26.4998 21.2116 26.5644 20.9459 26.4137 20.7333V20.7864ZM16.8082 24.4003C16.8082 24.1877 16.8082 23.9485 16.8728 23.736C16.9589 23.3639 17.0666 23.0982 17.2174 22.9654C16.9374 23.3905 16.8297 23.8954 16.8082 24.4003ZM17.9496 22.8856C17.9066 22.8856 17.8635 22.8856 17.8204 22.9388C17.7773 22.8856 17.7127 22.8325 17.6266 22.8059C17.7343 22.8059 17.8419 22.8591 17.9496 22.9122V22.8856ZM18.0358 26.0212C17.9281 25.782 17.8419 25.5694 17.7773 25.3303C17.885 25.5694 17.9927 25.8086 18.1004 26.0477C18.1004 26.0477 18.0573 26.0212 18.0358 25.9946V26.0212ZM20.8356 33.86C20.8356 33.7803 20.8571 33.7005 20.8787 33.6474C20.9217 33.8068 20.9863 33.9397 21.0294 34.0725C20.9648 33.9928 20.9002 33.9397 20.814 33.86H20.8356ZM24.1307 30.007C24.1092 30.007 24.0661 30.007 24.0446 30.007C24.0446 29.9007 24.0446 29.821 24.0877 29.7147C24.0877 29.5818 24.0877 29.449 24.0446 29.3427C24.1092 29.3427 24.1738 29.3427 24.2384 29.3161C24.2169 29.5287 24.1738 29.7678 24.1523 29.9804L24.1307 30.007Z" fill="#7E1910"/>
</g>
<g style="mix-blend-mode:multiply" opacity="0.2">
<path d="M37.9577 28.3865C37.3331 27.9614 36.6655 28.3068 36.2347 28.918C35.6102 29.7949 35.3733 31.1235 35.1148 32.2129C34.7702 33.6744 34.5333 35.1359 34.1457 36.5708C33.758 37.9791 33.155 39.2014 32.6165 40.53C32.035 41.9384 31.6258 43.4264 31.0874 44.8347C31.0443 44.941 31.0874 45.0739 31.1305 45.1802C31.0874 45.1802 31.0659 45.1802 31.0228 45.1802C30.6351 45.2599 30.2259 45.5522 30.0967 46.0305C29.9675 46.4822 30.1613 46.9605 30.5274 47.0402C30.5274 47.1997 30.6782 47.2794 30.7644 47.12C31.6258 45.4725 32.5304 44.0642 33.7149 42.7355C34.8348 41.4866 36.084 40.5035 37.2685 39.3609C37.3977 39.228 37.3977 39.042 37.3331 38.8826C38.2377 36.4379 38.5392 33.7276 38.69 31.0703C38.7546 30.1137 38.7115 28.9446 37.9362 28.4131L37.9577 28.3865ZM33.1119 42.1509C33.1119 42.1509 33.1334 42.0978 33.155 42.0712C33.155 42.0447 33.1765 41.9915 33.198 41.9649C33.2196 41.9118 33.2626 41.8587 33.3057 41.8055C33.4134 41.7258 33.5211 41.6726 33.6288 41.5929C33.4565 41.7789 33.2842 41.9649 33.1119 42.1775V42.1509ZM36.1486 34.8967C36.1486 34.9499 36.1271 34.9764 36.1055 35.0296C36.1055 34.9764 36.1055 34.9233 36.084 34.8967C36.1055 34.8702 36.1271 34.817 36.1486 34.7639C36.1486 34.7107 36.1701 34.6842 36.1917 34.631C36.1917 34.6842 36.1917 34.7373 36.1917 34.7639C36.1917 34.7904 36.1486 34.8436 36.1486 34.8702V34.8967ZM36.407 31.4158C36.407 31.2298 36.4501 31.0438 36.4501 30.8577C36.4716 30.8577 36.4932 30.8577 36.5363 30.8577C36.5363 30.8843 36.5363 30.9375 36.5363 30.964C36.4932 31.1235 36.4286 31.2563 36.3855 31.4158H36.407Z" fill="#7E1910"/>
</g>
<g style="mix-blend-mode:multiply" opacity="0.2">
<path d="M58.1802 28.7584C57.9649 26.606 56.1558 25.9949 54.842 26.8983C55.0789 25.5431 55.0358 24.1082 54.6266 22.7796C54.239 21.5307 53.5498 20.2287 52.3007 20.521C51.0946 20.8133 50.5777 22.3013 50.2331 23.5768C50.1039 24.0816 50.0177 24.5865 49.9316 25.0914C49.7162 25.6228 49.7162 26.3669 49.6947 26.8983C49.6516 27.8815 49.6731 28.8912 49.7593 29.901C48.3594 27.9346 48.704 25.118 48.9624 22.7265C49.1132 21.3713 49.3716 20.0692 49.6516 18.7406C49.8454 17.784 50.0177 16.7477 49.8239 15.7645C49.5439 14.3296 48.5532 13.0807 47.2825 13.3465C45.775 13.6653 44.9566 15.6582 44.5904 17.3057C44.4612 17.4386 44.3751 17.6246 44.3535 17.8637C44.3535 18.2889 44.8273 18.5546 45.0642 18.2358C45.495 18.1029 45.7965 18.2358 45.9257 18.7141C46.1842 19.0064 46.2488 19.3784 46.098 19.8301C45.9688 20.3615 45.5811 20.6804 45.1935 20.893C44.9135 21.0524 44.5689 21.079 44.4181 21.4776C44.3104 21.7964 44.4181 22.1419 44.4827 22.4607C44.5904 23.0453 44.6335 23.6299 44.7196 24.1879L44.655 24.2942C44.5043 24.5334 44.6335 24.932 44.8489 25.0648C44.8489 25.0914 44.8489 25.1445 44.8489 25.1711C44.8489 25.1711 44.8489 25.1711 44.8489 25.1977C44.8489 25.2243 44.8058 25.2508 44.8058 25.2774C44.655 25.5431 44.9781 25.7823 45.1504 25.5963C45.3658 25.3837 45.5596 25.1445 45.7965 24.9585C45.9903 24.7725 46.2057 24.6131 46.4426 24.5334C46.7872 24.6928 47.1102 24.8257 47.4548 24.9851C47.9071 25.5697 47.4979 27.0046 47.3041 27.6423C46.8518 29.1304 46.2272 30.5387 45.538 31.8673C45.3011 32.319 45.6888 32.7442 46.0334 32.6645C46.2918 33.1959 46.7872 33.5679 47.1964 33.94C47.9933 34.6574 48.7901 35.3483 49.6085 36.0126C49.5439 36.2517 49.7162 36.4377 49.9101 36.3315C50.47 36.0392 50.9223 35.5874 51.5038 35.3748C52.1499 35.1357 52.796 35.056 53.4637 35.2154C53.7867 35.2951 53.959 34.9497 53.8944 34.6574C55.6173 33.5945 58.4818 31.6813 58.1802 28.7849V28.7584ZM56.5434 31.1499C56.2419 31.5484 55.8973 31.8939 55.5312 32.2393C55.8758 31.8673 56.1988 31.5219 56.5434 31.1499ZM54.0667 25.8886C54.0451 26.1809 54.0021 26.4732 53.9375 26.7654V26.5529C53.9805 26.3403 54.0236 26.1277 54.0667 25.9151V25.8886ZM45.5811 21.7699C45.5811 21.7964 45.5596 21.8496 45.538 21.8762C45.495 21.823 45.4304 21.7699 45.3658 21.7699C45.4519 21.7433 45.5381 21.7167 45.6027 21.6901C45.6027 21.6901 45.5811 21.7433 45.5811 21.7699ZM46.2918 15.6582C46.1842 15.738 46.098 15.8177 46.0119 15.8974C46.098 15.738 46.2057 15.5785 46.3134 15.4191C46.3134 15.4988 46.3134 15.5785 46.3134 15.6582H46.2918ZM46.7441 18.2092C46.701 18.1029 46.658 18.0232 46.5934 17.9169C46.658 17.9435 46.701 17.97 46.7657 18.0232C46.7657 18.0763 46.7657 18.156 46.7657 18.2092H46.7441ZM47.7348 33.2756C47.6917 33.2491 47.6271 33.1959 47.5841 33.1694C47.6271 33.0631 47.6271 32.9036 47.5841 32.7708C47.541 32.6645 47.4979 32.5582 47.4333 32.3988C47.5195 32.4519 47.5841 32.5051 47.6702 32.5582C47.6271 32.7442 47.6271 32.9568 47.7564 33.1428C47.7564 33.1694 47.7564 33.1959 47.7564 33.2491L47.7348 33.2756ZM48.0148 24.3474C47.9933 24.2942 47.9502 24.2411 47.9071 24.1879C47.9502 24.1879 47.9933 24.1348 48.0148 24.1082C48.0148 24.1879 48.0148 24.2677 48.0148 24.3474ZM48.2732 28.3332C48.2302 28.3066 48.2086 28.2535 48.1656 28.2269C48.1656 28.2269 48.144 28.2269 48.1225 28.2003C48.144 28.1206 48.1656 28.0409 48.1871 27.9612C48.2086 28.0941 48.2517 28.2269 48.2732 28.3332ZM50.0608 35.2154C49.9962 35.1623 49.9316 35.1091 49.867 35.056C49.9316 35.056 49.9747 35.056 50.0393 35.056C50.1039 35.056 50.1685 35.056 50.2331 35.056C50.1685 35.1091 50.1039 35.1623 50.0608 35.242V35.2154ZM50.5131 33.7539C50.4485 33.6742 50.3623 33.5945 50.2977 33.4882C50.4054 33.5679 50.4915 33.6477 50.5992 33.7008C50.5777 33.7008 50.5346 33.7008 50.5131 33.7274V33.7539ZM50.8146 31.8407C50.7715 31.7876 50.75 31.7345 50.7069 31.6813C50.7931 31.6813 50.8792 31.6813 50.9654 31.6813C50.9223 31.7345 50.8577 31.7876 50.8146 31.8407ZM52.4299 21.637C52.6883 21.5839 52.9252 21.7433 53.1406 21.9824C52.9252 21.823 52.6883 21.6901 52.4299 21.637Z" fill="#7E1910"/>
</g>
<g style="mix-blend-mode:multiply" opacity="0.2">
<path d="M22.0851 9.49403C21.6974 9.65346 21.3528 10.052 21.1805 10.5038C21.0298 10.9024 20.9221 11.5135 21.159 11.8855C21.2451 12.0184 21.4174 12.045 21.5036 11.8855C21.6328 11.6198 21.6759 11.2744 21.8266 11.0086C21.9774 10.7163 22.1712 10.5569 22.4081 10.3443C22.7527 10.052 22.5589 9.30802 22.1066 9.46745L22.0851 9.49403Z" fill="#7E1910"/>
</g>
<g style="mix-blend-mode:multiply" opacity="0.2">
<path d="M34.4037 3.64867C33.6714 2.74521 32.0992 2.63892 31.4101 3.64867C31.2593 3.86125 31.4101 4.23326 31.647 4.15354C32.0346 4.02068 32.3792 3.86125 32.7884 3.91439C33.2192 3.96753 33.5422 4.18011 33.8868 4.44584C34.296 4.73813 34.7268 4.04725 34.4037 3.6221V3.64867Z" fill="#7E1910"/>
</g>
<g style="mix-blend-mode:multiply" opacity="0.2">
<path d="M38.8618 9.73288C38.3233 9.97203 37.7634 10.4238 37.4618 11.0349C37.1819 11.5929 37.0526 12.4167 37.4618 12.9216C37.5911 13.081 37.828 13.0278 37.871 12.7887C37.9357 12.3104 37.9572 11.8852 38.2372 11.4867C38.4956 11.1146 38.8618 10.9286 39.1848 10.6895C39.594 10.3972 39.314 9.52031 38.8618 9.70631V9.73288Z" fill="#7E1910"/>
</g>
<g style="mix-blend-mode:multiply" opacity="0.2">
<path d="M48.7258 6.5179C48.6181 6.41161 48.5966 6.19904 48.532 6.0396C48.4243 5.82703 48.2735 5.64102 48.1012 5.50816C47.8213 5.29558 47.2828 5.083 47.0675 5.50816C47.0244 5.58788 47.0244 5.74731 47.0675 5.8536C47.1751 6.0396 47.3044 6.0396 47.4551 6.11932C47.5628 6.17246 47.6705 6.27875 47.7566 6.41161C47.9505 6.73048 47.8859 7.12906 48.2305 7.34164C48.6397 7.58079 49.1135 6.94306 48.7473 6.5179H48.7258Z" fill="#7E1910"/>
</g>
<g style="mix-blend-mode:multiply" opacity="0.2">
<path d="M45.7542 19.1394C45.8403 19.2457 45.6681 19.0066 45.7111 19.0597C45.6896 19.0331 45.668 18.98 45.625 18.9534C45.4742 18.794 45.3019 18.6611 45.1081 18.6611C44.9143 18.6611 44.7635 19.0066 44.9358 19.1926C45.0219 19.2989 45.065 19.3254 45.1296 19.4317C45.1296 19.4583 45.1296 19.5114 45.1296 19.538C45.1296 19.5912 45.1296 19.6177 45.1296 19.6709C45.1727 19.8037 45.1727 19.8303 45.1512 19.7506C45.2158 19.9366 45.3235 20.096 45.5173 20.096C45.668 20.096 45.8403 19.9632 45.8834 19.7506C45.9265 19.5114 45.8834 19.352 45.7757 19.166L45.7542 19.1394Z" fill="#7E1910"/>
</g>
<g style="mix-blend-mode:multiply" opacity="0.2">
<path d="M47.2615 25.9159C47.1322 25.6502 46.9599 25.4376 46.7446 25.3047C46.5077 25.1984 46.2061 25.1719 46.0123 25.411C45.8616 25.5704 45.9477 25.8893 46.12 25.9425C46.2492 25.9956 46.3354 25.969 46.4215 26.0487C46.4646 26.0753 46.4861 26.1019 46.5077 26.155C46.4861 26.1285 46.5077 26.155 46.5077 26.1816C46.5292 26.4739 46.7446 26.713 47.003 26.6333C47.2615 26.5536 47.3691 26.1816 47.2399 25.9159H47.2615Z" fill="#7E1910"/>
</g>
<g style="mix-blend-mode:multiply" opacity="0.2">
<path d="M19.2848 41.1144C18.2941 40.8221 16.9157 41.2739 16.4635 42.4696C16.3558 42.7885 16.6142 43.2402 16.8942 43.0011C17.5834 42.3633 18.1649 41.9116 19.0694 42.0976C19.5863 42.2039 19.8232 41.2739 19.2848 41.1144Z" fill="#7E1910"/>
</g>
<g style="mix-blend-mode:multiply" opacity="0.2">
<path d="M19.0704 46.828C18.9197 46.642 18.7043 46.6685 18.5751 46.828C18.4243 46.9874 18.2951 47.2531 18.252 47.4923C18.209 47.7314 18.1874 48.0769 18.3597 48.2629C18.4674 48.3957 18.6397 48.3692 18.7258 48.2097C18.7905 48.0769 18.7905 47.9174 18.8335 47.7846C18.8766 47.6517 18.9627 47.5454 19.0704 47.4657C19.2212 47.3063 19.1997 46.9874 19.0704 46.8545V46.828Z" fill="#7E1910"/>
</g>
<g style="mix-blend-mode:multiply" opacity="0.2">
<path d="M35.997 58.7587C35.6524 58.6524 35.3078 59.0244 35.2001 59.3964C35.114 59.7418 35.157 60.1404 35.394 60.353C35.5447 60.4859 35.7816 60.2999 35.7601 60.0873C35.7601 60.0873 35.7601 59.981 35.7601 59.9544C35.7601 59.9544 35.7601 59.9013 35.7601 59.8747C35.7601 59.8747 35.7601 59.8216 35.7601 59.795L35.7816 59.7418L35.8247 59.6887C35.8247 59.6887 35.8247 59.6887 35.8462 59.6887H35.8678C35.8678 59.6887 35.9108 59.6887 35.9324 59.6887C35.9754 59.6887 36.0185 59.6356 36.0616 59.609C36.3631 59.423 36.277 58.865 35.9754 58.7587H35.997Z" fill="#7E1910"/>
</g>
<g style="mix-blend-mode:multiply" opacity="0.2">
<path d="M42.5011 45.4998C42.0273 45.4467 41.0366 45.6593 41.3166 46.5096C41.4027 46.7487 41.7042 46.8019 41.7688 46.5096C41.8119 46.2704 42.3288 46.4033 42.458 46.4564C42.5442 46.4564 43.0611 46.6424 43.0826 46.7487C43.1687 47.227 43.8149 47.2536 43.8795 46.7487C44.0087 45.8453 43.0611 45.553 42.5011 45.4998Z" fill="#7E1910"/>
</g>
<g style="mix-blend-mode:multiply" opacity="0.2">
<path d="M38.9045 52.2749C38.646 52.328 38.4953 52.6203 38.323 52.8063C38.1722 52.9658 37.9999 53.1252 37.8707 53.3112C37.6123 53.6567 37.5046 54.1615 37.8707 54.507C38.0645 54.693 38.2584 54.3741 38.2368 54.1615C38.2153 53.9224 38.603 53.6567 38.7322 53.5238C38.9691 53.2847 39.2491 53.1518 39.3567 52.7798C39.4429 52.4343 39.1629 52.2218 38.926 52.2483L38.9045 52.2749Z" fill="#7E1910"/>
</g>
<g style="mix-blend-mode:multiply" opacity="0.2">
<path d="M54.5841 36.066C53.7657 35.4017 52.6027 35.4815 51.6982 35.8269C51.3966 35.9332 51.4828 36.4381 51.7628 36.4646C52.6242 36.5443 53.378 36.4381 54.1534 36.9695C54.6272 37.3149 55.0364 36.4381 54.5841 36.066Z" fill="#7E1910"/>
</g>
<g style="mix-blend-mode:multiply" opacity="0.2">
<path d="M57.8358 42.018C57.6204 41.7257 57.2973 41.5397 56.9958 41.6992C56.8666 41.7789 56.8451 42.018 56.9527 42.1243C57.082 42.2572 57.2112 42.3369 57.2758 42.5495C57.3619 42.7886 57.3404 43.0544 57.3619 43.2935C57.3835 43.5592 57.5342 43.825 57.7927 43.825C58.0511 43.825 58.245 43.5858 58.2234 43.2935C58.1803 42.8418 58.0942 42.3369 57.8358 41.9915V42.018Z" fill="#7E1910"/>
</g>
<g style="mix-blend-mode:multiply" opacity="0.2">
<path d="M47.4773 59.0517C47.1758 58.9454 47.025 59.4502 47.2835 59.6362C47.865 60.088 48.0588 60.7523 47.865 61.576C47.7142 62.2403 48.4895 62.4795 48.6834 61.8417C48.9849 60.7523 48.3818 59.3439 47.4988 59.0517H47.4773Z" fill="#7E1910"/>
</g>
<g style="mix-blend-mode:multiply" opacity="0.2">
<path d="M29.6226 23.6301C29.5795 22.7798 29.4073 21.9826 29.1488 21.2652C28.7827 20.0163 28.2227 18.9534 27.3612 17.8905C27.232 17.7311 27.1243 17.5982 26.9951 17.4388C25.8967 15.8445 24.9491 14.2501 24.2384 12.2572C24.0015 11.6195 23.2477 12.1775 23.4631 12.8152C24.1307 14.6221 24.9491 16.243 26.0044 17.7311C27.232 19.4583 28.7396 21.2121 28.9981 23.6301C29.0627 24.135 29.6011 24.0819 29.6226 23.6301Z" fill="#7E1910"/>
</g>
<g style="mix-blend-mode:multiply" opacity="0.2">
<path d="M33.8436 6.27851C33.822 6.11907 33.7144 6.11907 33.6282 6.17222C33.6067 5.80021 33.0898 5.69392 32.9606 6.11907C32.4652 8.0057 32.1206 9.89233 32.7883 11.779C32.8744 12.0181 33.219 11.8587 33.1544 11.593C32.6806 9.86576 33.0252 8.13856 33.5421 6.49108C33.8005 8.74972 34.0805 11.0084 33.8867 13.2936C33.8651 13.6124 33.822 13.9579 33.7574 14.2767C32.8744 16.0571 31.8191 18.0234 31.6899 20.1492C31.5822 22.0358 32.0129 23.8959 32.056 25.756C31.8837 27.7754 31.3453 29.6886 30.7207 31.5487C30.1392 33.3556 29.4716 35.1094 28.9332 36.9429C28.3301 38.9624 27.8778 40.7161 26.4564 42.0713C24.6042 43.8251 21.6537 45.5788 22.0629 49.0598C22.429 52.1953 25.3796 53.4177 26.2195 56.2077C26.2195 56.2609 26.2195 56.314 26.2626 56.3672C26.2626 56.3672 26.2626 56.3937 26.2841 56.4203C26.2841 56.4735 26.3272 56.5266 26.3703 56.5798C26.4779 56.7923 26.6072 57.0049 26.7148 57.2441C26.8225 57.4301 27.0594 57.4301 27.1456 57.2441C27.2748 57.1909 27.3825 56.9518 27.2533 56.8189C27.2102 56.7923 27.1887 56.7392 27.1456 56.686C26.8441 54.5071 25.1427 52.7533 24.195 50.9996C23.3551 49.4584 22.989 47.7046 24.0227 46.1369C24.5396 45.3397 25.1642 44.5957 25.8103 43.9048C26.6718 43.1608 27.5117 42.4699 28.0286 41.7524C28.9762 40.4238 29.2562 38.8029 29.6223 37.1289C30.0531 35.2422 30.7207 33.5151 31.3238 31.7081C31.9053 29.9809 32.4221 28.174 32.6375 26.314C32.8744 24.0819 32.5729 21.8498 33.0682 19.6443C33.4559 17.8906 34.0805 16.2165 34.3605 14.4362C34.3605 14.4362 34.3605 14.383 34.382 14.383C34.4251 14.2767 34.4251 14.197 34.4035 14.1173C34.4251 13.9047 34.4466 13.7187 34.4682 13.5062C34.662 11.0881 34.2528 8.61686 33.822 6.25193L33.8436 6.27851ZM32.4652 19.4583C32.4006 19.7772 32.336 20.0961 32.3145 20.3884C32.3791 19.6443 32.5514 18.9269 32.7667 18.2626C32.659 18.6612 32.5514 19.0598 32.4652 19.4583Z" fill="#7E1910"/>
</g>
<g style="mix-blend-mode:multiply" opacity="0.2">
<path d="M30.8501 21.7701C30.8501 21.6639 30.7208 21.6639 30.7208 21.7701C30.6132 23.3645 30.527 24.9854 30.4624 26.5797C30.3978 28.2006 30.3547 29.609 29.6871 31.0439C29.5794 31.3096 29.8594 31.6019 30.0317 31.3627C30.7424 30.3264 30.8716 28.9712 30.8931 27.6426C30.9577 25.6763 30.8931 23.7099 30.8285 21.7436L30.8501 21.7701Z" fill="#7E1910"/>
</g>
<g style="mix-blend-mode:multiply" opacity="0.2">
<path d="M33.9951 19.6707C33.8874 21.8496 34.1674 24.3209 33.5213 26.3935C33.4567 26.6061 33.7367 26.7389 33.8228 26.5529C34.6628 24.374 34.7058 22.0357 34.7058 19.6707C34.7058 19.0861 34.0167 19.1127 33.9951 19.6707Z" fill="#7E1910"/>
</g>
<g style="mix-blend-mode:multiply" opacity="0.2">
<path d="M22.4506 44.41C21.3737 44.8883 20.2753 45.5791 19.9092 47.0406C19.4785 48.7944 20.663 49.8307 21.3952 51.1328C21.6106 51.5048 22.0629 51.1859 21.8906 50.7607C21.4599 49.6181 20.1892 48.8741 20.3184 47.4924C20.4692 46.0575 21.5891 45.2603 22.5367 44.6757C22.6444 44.596 22.5798 44.3568 22.4506 44.41Z" fill="#7E1910"/>
</g>
<g style="mix-blend-mode:multiply" opacity="0.2">
<path d="M30.4841 36.0398C30.3118 36.7573 30.3764 37.4747 30.2687 38.1922C30.1395 39.1754 29.6872 39.946 29.278 40.7431C28.5457 42.1515 27.7489 43.4269 26.7366 44.5695C25.2937 46.1904 24.4106 48.3162 25.0568 50.7609C25.0998 50.9469 25.4013 50.9469 25.3583 50.7077C25.229 49.326 25.3583 47.9176 26.0044 46.7219C26.6505 45.4996 27.7273 44.6758 28.4596 43.5332C29.1488 42.5235 29.7303 41.3809 30.2902 40.2648C30.9579 38.9096 30.8287 37.767 31.0225 36.2524C31.0871 35.8007 30.5702 35.6147 30.4625 36.0664L30.4841 36.0398Z" fill="#7E1910"/>
</g>
<g style="mix-blend-mode:multiply" opacity="0.2">
<path d="M47.0026 7.97896C43.729 10.3705 41.2522 14.2234 40.6276 18.9267C40.3046 21.3448 40.5415 23.7363 41.2522 26.0215C42.0491 28.599 42.9536 30.9639 42.3937 33.7806C41.4676 38.4573 37.6771 41.1145 34.7911 43.8249C32.0559 46.3759 30.0099 49.4848 28.9546 53.5504C28.3516 55.9153 28.0716 58.3865 28.1147 60.8577C28.1147 62.0003 28.2223 63.1164 28.3731 64.259C28.5669 65.7736 29.2561 67.5805 28.8469 69.0951C28.7392 69.4937 29.2561 69.6797 29.3638 69.2811C29.6438 68.2448 29.4499 67.2882 29.2346 66.2519C28.9977 65.0827 28.8038 63.9135 28.6962 62.7178C28.5023 60.4326 28.5454 58.0676 28.9115 55.809C29.6653 51.1854 31.6898 47.3325 34.8127 44.6221C37.4832 42.2837 40.6061 40.4768 42.329 36.8364C43.2121 34.9764 43.6643 32.7443 43.3844 30.5919C43.0828 28.1739 41.8337 26.1544 41.403 23.816C40.24 17.6247 43.2121 11.7788 47.1103 8.21811C47.2179 8.11182 47.1103 7.89924 47.0026 8.00553V7.97896Z" fill="#7E1910"/>
</g>
<g style="mix-blend-mode:multiply" opacity="0.2">
<path d="M44.3972 27.7227C44.1603 26.6333 43.8157 25.5969 43.5141 24.5075C43.1265 23.0991 43.2342 21.9565 43.428 20.4951C43.5141 19.8839 42.825 19.6182 42.6742 20.2293C42.1142 22.302 42.4588 23.9229 43.0403 25.9158C43.6434 27.9087 44.0741 29.9814 44.0526 32.1337C44.0095 36.4384 41.3174 40.4243 38.6037 42.8423C38.4099 43.0018 38.6037 43.4003 38.7976 43.2409C41.382 41.0354 43.9664 37.8999 44.6556 33.9672C45.0217 31.8946 44.8494 29.7688 44.4187 27.7227H44.3972Z" fill="#7E1910"/>
</g>
<g style="mix-blend-mode:multiply" opacity="0.2">
<path d="M40.1325 13.4798C39.9172 12.8155 39.508 12.3106 39.4218 11.5932C39.3788 11.1946 38.8834 11.354 38.9265 11.7526C38.9911 12.2841 39.228 12.6826 39.4864 13.1344C39.8526 13.7987 40.0249 14.463 40.0464 15.2867C40.0464 15.4196 40.1972 15.4462 40.2402 15.3133C40.3479 14.7021 40.3264 14.0644 40.1541 13.4798H40.1325Z" fill="#7E1910"/>
</g>
<g style="mix-blend-mode:multiply" opacity="0.2">
<path d="M41.1881 12.4955C40.9727 12.0704 40.865 11.6187 40.8004 11.1138C40.7789 10.9278 40.542 10.9809 40.542 11.1669C40.542 11.725 40.6497 12.2564 40.8435 12.7613C40.9512 13.0536 41.3389 12.7878 41.1881 12.5221V12.4955Z" fill="#7E1910"/>
</g>
<g style="mix-blend-mode:multiply" opacity="0.2">
<path d="M31.1087 61.416C30.6779 58.6525 30.6133 55.1981 31.5394 52.594C31.604 52.408 31.4317 52.1954 31.3025 52.3814C30.118 54.0821 29.9887 56.7659 30.0318 58.9182C30.0749 61.5754 31.3456 64.5515 30.0534 66.943C29.7949 67.4479 30.3549 67.9262 30.6995 67.5542C32.1209 66.013 31.4102 63.3823 31.1087 61.4426V61.416Z" fill="#7E1910"/>
</g>
<g style="mix-blend-mode:multiply" opacity="0.2">
<path d="M56.2426 44.0111C54.4981 46.6684 51.7198 47.0138 49.2861 48.1033C47.1109 49.0599 45.4741 50.8402 44.1173 53.0988C42.5666 55.6498 41.4251 58.5727 39.8099 61.0705C38.1085 63.6746 35.8471 65.4549 33.198 66.2255C33.0257 66.2787 33.0904 66.5975 33.2626 66.5444C35.6748 66.0129 37.8285 64.6046 39.5084 62.4257C41.2959 60.0873 42.4589 57.191 43.9881 54.5869C44.7849 53.2051 45.6895 51.8765 46.8094 50.8668C47.9724 49.8039 49.2861 49.1927 50.643 48.6878C52.9474 47.8641 55.4457 47.1732 56.8671 44.5691C57.1041 44.1174 56.5441 43.5594 56.2641 43.9846L56.2426 44.0111Z" fill="#7E1910"/>
</g>
<g style="mix-blend-mode:multiply" opacity="0.2">
<path d="M53.6796 44.7017C52.172 45.7646 50.5567 46.4555 48.8768 46.9869C48.7261 47.0401 48.7907 47.3058 48.9414 47.2792C50.6644 46.9604 52.4735 46.4555 53.9165 45.2066C54.1749 44.994 53.938 44.4891 53.658 44.6752L53.6796 44.7017Z" fill="#7E1910"/>
</g>
<g style="mix-blend-mode:multiply" opacity="0.2">
<path d="M51.03 38.4575C49.8454 38.9358 48.8332 40.0518 48.5963 41.593C48.4671 42.4699 48.5317 43.3734 48.3378 44.2502C48.1009 45.3663 47.6271 46.2432 47.1748 47.2263C47.1318 47.3326 47.2395 47.4655 47.3256 47.4123C48.2732 46.6683 48.8978 45.26 49.1562 43.9314C49.307 43.1342 49.2639 42.2839 49.4793 41.5133C49.7808 40.3707 50.5777 39.9721 51.3315 39.361C51.6976 39.0687 51.4822 38.2715 51.03 38.4575Z" fill="#7E1910"/>
</g>
<g style="mix-blend-mode:multiply" opacity="0.2">
<path d="M42.9752 48.5824C41.683 49.1404 41.2307 50.7081 41.0584 52.2759C40.7784 54.694 40.8215 57.1386 39.4862 59.105C39.2277 59.5035 39.637 60.035 39.9385 59.663C40.9076 58.4938 41.3168 56.8995 41.4891 55.252C41.726 53.0465 41.4245 50.3627 43.0829 48.8746C43.1905 48.7684 43.1259 48.5026 42.9752 48.5558V48.5824Z" fill="#7E1910"/>
</g>
<g style="mix-blend-mode:multiply" opacity="0.2">
<path d="M39.4869 54.5068C39.4223 54.9586 39.3146 55.3571 39.1208 55.7557C38.97 56.048 39.3792 56.3403 39.5084 56.0215C39.7023 55.5432 39.7884 55.0648 39.7884 54.56C39.7884 54.374 39.53 54.2943 39.4869 54.5068Z" fill="#7E1910"/>
</g>
<g style="mix-blend-mode:multiply" opacity="0.2">
<path d="M44.1815 61.6015C43.1692 62.3189 41.8986 62.2392 40.8002 62.8238C39.7233 63.4084 38.7972 64.2587 38.0219 65.3481C37.8712 65.5607 38.1081 65.8264 38.2588 65.6404C39.2495 64.4713 40.4125 63.6209 41.7478 63.1692C42.6739 62.8503 43.7723 62.9832 44.5261 62.1595C44.763 61.8937 44.4615 61.4154 44.1815 61.6015Z" fill="#7E1910"/>
</g>
<g style="mix-blend-mode:multiply" opacity="0.2">
<path d="M48.963 51.3718C45.474 52.4612 44.591 57.5897 42.0497 60.1406C41.9205 60.2735 42.0927 60.5126 42.222 60.4063C45.0218 58.2806 45.7756 53.2584 49.1353 52.1424C49.5445 52.0095 49.3722 51.2389 48.963 51.3718Z" fill="#7E1910"/>
</g>
</svg>
