<svg width="72" height="72" viewBox="0 0 72 72" fill="none" xmlns="http://www.w3.org/2000/svg">
<path d="M33.2444 68.8568C31.3717 67.7331 29.499 66.6095 27.6262 65.1113C26.8771 64.3622 25.7535 63.6132 25.0044 62.8641C24.2553 62.115 23.5063 61.3659 22.7572 60.2423C21.259 58.3695 20.1354 56.1223 19.0117 54.2496C18.6372 53.126 18.2627 52.0023 17.8881 51.2532L16.7645 48.2569C15.2663 44.1369 13.3936 40.3915 11.5209 37.0206C9.64815 33.6497 7.02634 30.2788 4.40454 27.657C2.53182 26.1588 2.53182 23.537 4.40454 21.6643C5.90271 19.7916 8.52452 19.7916 10.3972 21.6643C13.7681 25.4097 16.0154 29.5297 17.8881 33.6497C19.7608 37.7697 21.259 42.2642 22.3826 46.3842L23.1317 49.3805C23.1317 50.5041 23.5063 51.2532 23.8808 52.3769C23.8808 53.5005 24.6299 54.2496 25.0044 54.9987C25.379 55.7478 25.7535 56.8714 26.5026 57.6205C28.7499 60.9913 31.7462 63.6131 35.1171 65.8604C35.8662 66.2349 35.8662 67.3586 35.4916 68.1077C35.1171 68.8568 33.9935 68.8568 33.6189 68.4823L33.2444 68.8568Z" fill="#4A5386"/>
<g style="mix-blend-mode:multiply">
<path d="M35.1187 66.2353C31.7478 63.9881 28.3769 60.9917 26.5042 57.9954C26.1296 57.2463 25.3805 56.4972 25.006 55.3736C24.6315 54.6245 24.2569 53.5008 23.8824 52.7517C23.8824 51.6281 23.1333 50.8791 23.1333 49.7554L22.3842 46.7591C21.2606 42.6391 19.7624 38.1445 17.8897 34.0246C16.017 29.9046 13.3952 25.7846 10.3988 22.0392C9.27519 20.9156 7.40247 20.541 5.9043 21.2901C6.65338 21.2901 7.40247 21.6647 7.77701 22.4138C11.1479 26.1592 13.3952 30.2792 15.2679 34.3991C17.1406 38.5191 18.6388 43.0136 19.7624 47.1336L20.5115 50.1299C20.5115 51.2536 20.886 52.0027 21.2606 53.1263C21.2606 54.2499 22.0097 54.999 22.3842 55.7481C22.7587 56.4972 23.1333 57.6208 23.8824 58.3699C26.1296 61.7408 29.126 64.3626 32.4969 66.6099C33.246 66.9844 33.246 68.108 32.8714 68.8571C32.8714 68.8571 32.8714 68.8571 33.246 68.8571C33.995 68.8571 34.7441 68.8571 35.1187 68.4826C35.4932 67.7335 35.1187 66.6099 34.7441 66.2353H35.1187Z" fill="#A1A7C2"/>
</g>
<path d="M8.89911 21.664C9.64819 22.7876 8.89911 24.2858 7.77548 25.4095C6.27731 26.5331 4.77913 26.5331 4.03005 25.4095C3.28096 24.2858 4.03004 22.7876 5.15367 21.664C6.65185 20.5404 8.15002 20.5404 8.89911 21.664Z" fill="#5E5D76"/>
<path d="M10.0239 22.4141C10.0239 23.1631 10.0239 23.9122 10.0239 24.6613C10.0239 25.4104 9.27486 26.1595 8.52577 26.534C7.77669 26.9085 7.02759 27.2831 6.2785 27.2831C5.52942 27.2831 4.78034 27.2831 4.03125 26.534C4.78034 26.534 5.52942 26.9085 6.2785 26.534C7.02759 26.534 7.77668 26.534 8.15122 25.7849C8.90031 25.4104 9.27486 25.0359 9.6494 24.2868C9.6494 23.5377 10.0239 23.1631 10.0239 22.4141Z" fill="#7481A1"/>
<path d="M33.245 68.1075C32.1214 65.8602 30.9978 63.6129 30.2487 61.3657C29.1251 59.1184 28.376 56.4966 28.0014 53.8748C28.0014 52.7512 27.6269 51.2531 27.2523 49.7549C27.2523 48.2567 27.2523 47.133 27.2523 45.6349C27.2523 43.0131 27.2523 40.7658 27.2523 38.144C27.2523 28.7804 24.256 19.4168 19.3869 11.926C18.2633 10.0533 18.6378 7.43145 20.5106 6.30782C22.3833 5.18419 25.0051 5.55874 26.1287 7.43146C30.9978 16.795 33.245 27.6568 32.4959 38.144C32.4959 40.7658 32.1214 43.3876 31.7469 45.6349C31.7469 46.7585 31.7469 47.8821 31.7469 49.0057C31.7469 50.1294 31.7469 51.253 31.7469 52.3767C31.7469 54.6239 32.4959 56.8712 33.245 59.1185C33.9941 61.3657 34.7432 63.6129 35.8668 65.8602C35.8668 66.6093 35.8668 67.7329 35.1178 67.7329C34.3687 67.7329 33.6196 67.7329 33.245 66.9838V68.1075Z" fill="#4A5386"/>
<g style="mix-blend-mode:multiply">
<path d="M32.12 46.0092C32.12 43.7619 32.8691 41.1401 32.8691 38.5183C33.6182 28.0311 31.3709 17.5438 26.5019 7.80572C25.3782 6.30755 23.5055 5.55845 21.6328 6.30754C22.7564 6.30754 23.8801 7.05663 24.6292 8.18026C29.4982 17.5438 31.7455 28.4056 30.9964 38.8928C30.9964 41.5146 30.6219 44.1364 30.2473 46.3837C30.2473 47.5073 30.2473 48.631 30.2473 49.7546C30.2473 50.8782 30.2473 52.0018 30.2473 53.1255C30.2473 55.3727 30.9964 57.62 31.7455 59.8673C32.4946 62.1145 33.2436 64.3618 34.3673 66.6091C34.3673 67.3581 34.3673 68.1072 33.9927 68.4818C34.3673 68.4818 34.7418 68.4818 35.1164 68.4818C35.8655 68.4818 36.24 67.3581 35.8655 66.6091C35.1164 64.3618 33.9927 62.1145 33.2437 59.8673C32.4946 57.62 32.12 55.3727 31.7455 53.1255C31.7455 52.0018 31.7455 50.8782 31.7455 49.7546C31.7455 48.631 31.7455 47.5073 31.7455 46.3837L32.12 46.0092Z" fill="#A1A7C2"/>
</g>
<path d="M25.7544 8.18164C25.7544 8.93073 25.7544 9.67981 25.7544 10.4289C25.7544 11.178 25.0053 11.9271 24.2562 12.3016C23.5071 12.6762 22.7581 13.0507 22.009 13.0507C21.2599 13.0507 20.5108 13.0507 19.7617 12.3016C20.5108 12.3016 21.2599 12.6762 22.009 12.3016C22.7581 12.3016 23.5071 12.3016 23.8817 11.5525C24.6308 11.178 25.0053 10.8034 25.3799 10.0544C25.3799 9.30527 25.7544 8.93073 25.7544 8.18164Z" fill="#7481A1"/>
<path d="M25.0046 7.43061C25.7537 8.55424 25.0046 10.0524 23.8809 11.176C22.3828 12.2997 20.8846 12.2997 20.1355 11.176C19.3864 10.0524 20.1355 8.55424 21.2591 7.43061C22.7573 6.30698 24.2555 6.30698 25.0046 7.43061Z" fill="#5E5D76"/>
<path d="M34.3663 65.4839C35.1154 63.2367 35.8645 60.6148 36.239 58.3676C36.239 57.2439 36.6136 56.1203 36.6136 54.6221V53.8731V53.124C36.6136 52.3749 36.6136 52.0004 36.6136 51.2513C36.6136 49.004 36.6136 46.3822 35.8645 44.135C35.8645 41.5132 35.1154 39.2659 34.7409 36.6441C33.6173 31.775 32.8682 26.5314 32.8682 20.9133C32.8682 18.2914 32.8682 15.2951 33.6172 12.6733C34.3663 9.67693 35.1154 7.05514 36.6136 4.43334C37.7372 2.56062 40.359 1.81153 42.2317 2.93516C44.1045 4.05879 44.8535 6.68059 43.7299 8.55331C42.6063 10.426 41.4826 12.2987 41.1081 14.1715C40.359 16.4187 39.9845 18.666 39.9845 20.9133C39.9845 23.1605 39.9845 25.7823 39.9845 28.0296C39.9845 30.2768 40.359 32.8986 40.7336 35.5205C40.7336 38.1423 41.1081 40.764 41.4827 43.3858C41.4827 46.0076 41.4827 48.6295 41.4827 51.2513C41.4827 52.0004 41.4827 52.7494 41.4827 53.124V54.2476C41.4827 54.2476 41.4827 54.9967 41.4827 55.3713C41.4827 56.8694 41.1081 57.9931 40.7336 59.1167C39.9845 61.7385 38.8608 63.9858 38.1118 66.6076C38.1118 67.3566 36.9881 67.7312 36.239 67.3566C35.49 67.3566 35.1154 66.233 35.49 65.4839H34.3663Z" fill="#4A5386"/>
<g style="mix-blend-mode:multiply">
<path d="M42.6075 2.56182C41.4838 1.81273 39.9857 1.81273 38.862 2.56182C39.2366 2.56182 39.9857 2.56181 40.3602 2.93635C42.2329 4.05998 42.982 6.68179 41.8584 8.5545C40.7348 10.4272 39.6111 12.2999 39.2366 14.1727C38.4875 16.4199 38.113 18.6672 38.113 20.9144C38.113 23.1617 38.113 25.7835 38.113 28.0308C38.113 30.278 38.4875 32.8998 38.862 35.5216C38.862 38.1434 39.2366 40.7652 39.6111 43.387C39.6111 46.0088 39.6111 48.6307 39.6111 51.2525C39.6111 52.0015 39.6111 52.7506 39.6111 53.1252V54.2488C39.6111 54.2488 39.6111 54.9979 39.6111 55.3725C39.6111 56.8706 39.2366 57.9943 38.862 59.1179C38.113 61.7397 36.9893 63.987 36.2402 66.6088C36.2402 66.6088 36.2402 66.6087 36.2402 66.9833C36.9893 66.9833 38.113 66.9833 38.113 66.2342C38.862 63.9869 39.9857 61.3651 40.7348 58.7433C41.1093 57.6197 41.4838 56.1215 41.4838 54.9979C41.4838 54.9979 41.4838 54.2488 41.4838 53.8742V52.7506C41.4838 52.0015 41.4838 51.2524 41.4838 50.8779C41.4838 48.2561 41.4838 45.6343 41.4838 43.0125C41.4838 40.3907 41.1093 37.7689 40.7348 35.1471C40.7348 32.5253 40.3602 30.278 39.9857 27.6562C39.9857 25.0344 39.9857 22.7872 39.9857 20.5399C39.9857 18.2927 40.3602 16.0454 41.1093 13.7981C41.8584 11.5509 42.6075 9.67814 43.7311 8.17997C44.8547 6.30725 44.1057 3.68545 42.2329 2.56182H42.6075Z" fill="#A1A7C2"/>
</g>
<path d="M43.729 8.18093C43.3544 8.55547 42.6053 8.93003 41.8562 9.30457C41.1071 9.30457 40.3581 9.30455 39.609 8.93C38.8599 8.55546 38.4853 7.8064 38.1108 7.43185C38.1108 6.68277 37.7363 5.93366 38.1108 5.18457C38.1108 5.93366 38.1108 6.68274 38.8599 7.05729C39.2344 7.43183 39.609 8.18092 40.3581 8.55547C41.1072 8.55547 41.4817 8.93 42.2308 8.93C42.9799 8.93 43.729 8.93001 44.1035 8.55547L43.729 8.18093Z" fill="#7481A1"/>
<path d="M43.3549 7.05602C42.6058 8.17965 41.1076 8.17968 39.6094 7.43059C38.1113 6.6815 37.3622 5.18332 38.1113 4.05969C38.8603 2.93606 40.3585 2.93607 41.8567 3.68516C43.3549 4.43424 44.104 5.93239 43.3549 7.05602Z" fill="#5E5D76"/>
<path d="M33.9935 67.3567C39.9861 60.2404 44.1061 51.6259 45.6043 42.6368C47.1025 33.6478 45.6043 24.2842 42.2334 16.0443C41.4843 14.1715 42.2334 12.2988 44.1061 11.5497C45.9788 10.8007 47.8516 11.5497 48.6006 13.4225C51.9715 23.1606 52.7206 33.6478 50.4734 43.3859C48.2261 53.124 43.357 62.4877 36.2407 69.2294C35.4916 69.9785 34.7425 69.9785 33.9935 69.2294C33.2444 68.4804 33.2444 67.7312 33.9935 66.9822V67.3567Z" fill="#4A5386"/>
<g style="mix-blend-mode:multiply">
<path d="M48.6008 13.4227C47.8517 11.9245 45.979 10.8009 44.1063 11.55C45.2299 11.55 46.3535 12.299 46.7281 13.4227C50.099 23.1608 50.8481 33.648 48.6008 43.3861C46.3535 53.1242 41.4845 62.4879 34.3682 69.2296C35.1173 69.2296 35.8663 69.2296 36.2409 69.2296C43.3572 62.1133 48.2263 53.1242 50.4735 43.3861C52.7208 33.648 51.9717 23.1608 48.6008 13.4227Z" fill="#A1A7C2"/>
</g>
<path d="M48.2241 14.5449C48.2241 15.294 48.2241 15.6686 47.475 16.0431C47.1004 16.4176 46.3514 16.7922 45.9768 16.7922C45.2277 16.7922 44.8532 16.7922 44.1041 16.7922C43.355 16.7922 42.9805 16.0431 42.9805 15.6686C43.7296 16.4177 44.8532 16.7922 45.9768 16.4176C47.1005 16.4176 47.8495 15.6686 48.5986 14.5449H48.2241Z" fill="#7481A1"/>
<path d="M47.4775 13.0473C47.4775 14.1709 47.1029 15.2945 45.6047 15.6691C44.1066 16.0436 42.9829 15.6691 42.6084 14.5454C42.6084 13.4218 42.9829 12.2982 44.4811 11.9237C45.9793 11.5491 47.1029 11.9237 47.4775 13.0473Z" fill="#5E5D76"/>
<path d="M32.872 66.2335C33.9956 56.8699 32.872 47.5063 29.1265 39.2664C25.3811 31.0264 19.3884 23.5355 11.8975 18.6665C10.3994 17.5428 10.0248 15.6701 11.1484 14.1719C12.2721 12.6738 14.1448 12.2992 15.643 13.4229C23.8829 19.7901 29.8756 28.03 33.6211 37.7682C36.9919 47.1317 38.1156 57.619 35.8683 67.3571C35.8683 68.1062 34.7447 68.8553 33.9956 68.4808C33.2465 68.4808 32.4974 67.3571 32.872 66.608V66.2335Z" fill="#4A5386"/>
<g style="mix-blend-mode:multiply">
<path d="M15.6439 13.0488C14.1458 11.9252 11.8985 12.2997 11.1494 13.7979C12.273 13.4234 13.3967 13.4234 14.5203 13.7979C22.7603 20.1652 28.753 28.4051 32.4984 38.1432C35.8693 47.5068 36.9929 57.994 34.7457 67.7321C35.4947 67.7321 35.8693 67.3577 36.2438 66.6086C38.1165 56.8704 37.3675 46.3832 33.9966 37.0196C30.6257 27.656 24.2584 19.0415 16.0185 12.6743L15.6439 13.0488Z" fill="#A1A7C2"/>
</g>
<path d="M15.6434 14.1729C15.6434 14.5474 16.018 15.2965 15.6434 16.0456C15.6434 16.7947 15.2689 17.1692 14.8943 17.5437C14.5198 17.9183 13.7707 18.2928 13.3962 18.2928C12.6471 18.2928 12.2725 18.2928 11.5234 18.2928C12.6471 18.2928 13.7707 18.2928 14.5198 17.1692C15.2689 16.4201 15.6434 15.2965 15.6434 14.1729Z" fill="#7481A1"/>
<path d="M14.5181 13.4239C15.2672 14.173 15.2672 15.2966 14.5181 16.4202C13.769 17.5439 12.2709 17.9184 11.5218 17.1693C10.7727 16.4202 10.7727 15.2966 11.5218 14.173C12.2709 13.0493 13.769 12.6748 14.5181 13.4239Z" fill="#5E5D76"/>
<path d="M38.1143 65.4856C39.987 64.362 41.8597 63.2383 43.3579 61.7402C44.856 60.6165 46.3542 59.1184 47.1033 57.2456C47.8524 55.7475 48.6015 53.8747 48.976 52.002C48.976 50.1293 48.976 47.882 48.976 45.6348C48.976 43.3875 48.976 41.1402 49.3506 38.893V38.1439V37.3948C49.3506 36.6457 49.7251 36.2712 50.0996 35.5221V34.773C50.4742 34.773 50.8487 34.0239 50.8487 34.0239C50.8487 33.2748 51.5978 32.9003 51.5978 32.1512C53.096 29.9039 54.5942 28.0312 56.4669 26.533C58.3396 25.0349 60.2123 23.5367 62.085 22.4131C63.9578 21.2895 66.205 21.664 67.7032 23.1622C68.8268 25.0349 68.4523 27.2822 66.9541 28.7803C65.0814 29.904 63.2087 31.0276 61.7105 32.1512C60.2123 33.2748 58.7141 34.3985 57.9651 35.8966C57.9651 35.8966 57.5905 36.6457 57.216 37.0203C57.216 37.0203 57.216 37.0203 57.216 37.7693V38.5185C56.8414 38.893 56.4669 39.2675 56.4669 39.6421V40.3912C56.4669 40.3912 56.4669 40.7657 56.0923 41.1403C55.7178 43.013 55.3433 44.8857 54.9687 47.1329C54.9687 49.3802 54.5942 51.6275 53.8451 53.8747C53.8451 54.6238 53.8451 54.9984 53.4705 55.7474V56.4965C53.096 56.4965 53.096 57.2456 52.7215 57.2456V57.9947V58.7438C51.9724 58.7438 51.9724 59.1183 51.9724 59.4929C51.9724 59.4929 51.9724 59.8674 51.5978 60.2419C50.0997 62.1147 48.2269 63.9874 46.3542 65.111C44.4815 66.6092 42.6088 67.3583 40.7361 68.4819C39.987 68.8565 38.8634 68.4819 38.4888 67.7328C38.1143 66.9837 38.4888 66.2346 38.8633 65.8601L38.1143 65.4856Z" fill="#4A5386"/>
<g style="mix-blend-mode:multiply">
<path d="M68.0752 22.7867C68.0752 22.4122 67.3262 22.0376 66.5771 21.6631C67.7007 23.5358 67.3262 25.7831 65.828 27.2813C63.9553 28.4049 62.0826 29.5285 60.5844 30.6521C59.0862 31.7758 57.588 32.8994 56.8389 34.3976C56.8389 34.3976 56.4644 35.1467 56.0899 35.5212C56.0899 35.5212 56.0899 35.5212 56.0899 36.2703V37.0194C55.7153 37.3939 55.3408 37.7685 55.3408 38.143V38.8921C55.3408 38.8921 55.3408 39.2666 54.9662 39.6412C54.5917 41.5139 54.2171 43.3866 53.8426 45.6339C53.8426 47.8811 53.4681 50.1284 52.719 52.3757C52.719 53.1247 52.719 53.4993 52.3444 54.2484V54.9975C51.9699 54.9975 51.9699 55.7465 51.5953 55.7465V56.4956V57.2447C50.8463 57.2447 50.8463 57.6193 50.8463 57.9938C50.8463 57.9938 50.8462 58.3683 50.4717 58.7429C48.9735 60.6156 47.1008 62.4883 45.2281 63.612C43.3554 65.1101 41.4827 65.8592 39.61 66.9828C39.61 66.9828 38.8609 66.9828 38.4863 66.9828C38.8609 67.7319 39.9845 68.1064 40.7336 67.7319C42.6063 66.6083 44.479 65.4847 46.3517 64.361C48.2245 62.8629 50.0972 61.3647 51.5953 59.492C51.5953 59.492 51.5953 59.1174 51.9699 58.7429C51.9699 58.7429 51.9699 58.3684 52.3444 57.9938V57.2447C53.0935 57.2447 53.0935 56.4956 53.0935 56.4956V55.7465V54.9975C53.4681 54.2484 53.8426 53.8738 53.8426 53.1247C54.2171 50.8775 54.5917 48.6302 54.9662 46.3829C54.9662 44.1357 55.3408 42.263 56.0899 40.3903C56.0899 40.3903 56.0899 40.0157 56.0899 39.6412V38.8921C56.0899 38.5175 56.4644 38.143 56.8389 37.7684V37.0194C57.2135 37.0194 57.2135 36.6448 57.588 36.2703C57.588 36.2703 57.9626 35.5212 58.3371 35.1466C59.4608 33.6485 60.5844 32.5248 62.0826 31.4012C63.5807 30.2776 65.4534 29.154 67.3262 28.0303C69.1989 26.9067 69.5734 24.2849 68.0752 22.4122V22.7867Z" fill="#A1A7C2"/>
</g>
<path d="M66.2038 28.4062C65.4547 28.4062 64.7057 28.4062 63.9566 28.4062C63.2075 28.4062 62.8329 27.6571 62.4584 26.9081C62.0838 26.159 61.7093 25.4099 62.0839 24.6608C62.0839 23.9117 62.0839 23.1626 62.8329 22.7881C62.8329 23.5372 62.4584 23.9117 62.4584 24.6608C62.4584 25.4099 62.4584 25.7844 63.2075 26.5335C63.2075 26.908 63.9566 27.6572 64.7057 28.0317C65.0802 28.0317 65.8293 28.7808 66.5784 28.7808L66.2038 28.4062Z" fill="#7481A1"/>
<path d="M66.579 27.2819C65.4553 27.6564 63.9572 27.2819 63.2081 25.4092C62.459 23.911 62.8335 22.4128 63.9572 21.6637C65.0808 21.2892 66.579 21.6637 67.3281 23.5365C68.0771 25.0346 67.7026 26.5328 66.579 27.2819Z" fill="#5E5D76"/>
<circle cx="60" cy="7" r="2" fill="#5E5D76"/>
<circle cx="14" cy="50" r="2" fill="#5E5D76"/>
<circle cx="55" cy="60" r="2" fill="#5E5D76"/>
<circle cx="13" cy="2" r="1" fill="#5E5D76"/>
</svg>
