<svg width="24" height="24" viewBox="0 0 24 24" fill="none" xmlns="http://www.w3.org/2000/svg">
<g id="Icon/Outline/refresh">
<path id="Icon" d="M5 4C5 3.44772 4.55228 3 4 3C3.44772 3 3 3.44772 3 4H5ZM4 9H3C3 9.55228 3.44772 10 4 10V9ZM18.9458 11.1237C19.0141 11.6718 19.5138 12.0607 20.0618 11.9923C20.6099 11.924 20.9988 11.4243 20.9304 10.8763L18.9458 11.1237ZM9 10C9.55228 10 10 9.55228 10 9C10 8.44772 9.55228 8 9 8V10ZM19 20C19 20.5523 19.4477 21 20 21C20.5523 21 21 20.5523 21 20H19ZM20 15H21C21 14.4477 20.5523 14 20 14V15ZM15 14C14.4477 14 14 14.4477 14 15C14 15.5523 14.4477 16 15 16V14ZM5.05421 12.8763C4.98587 12.3282 4.48619 11.9393 3.93815 12.0077C3.39011 12.076 3.00124 12.5757 3.06958 13.1237L5.05421 12.8763ZM3 4V9H5V4H3ZM12 5C15.5689 5 18.5153 7.67174 18.9458 11.1237L20.9304 10.8763C20.3767 6.43564 16.5903 3 12 3V5ZM5.50845 9.37522C6.54763 6.80802 9.06387 5 12 5V3C8.22137 3 4.98895 5.32832 3.65458 8.62478L5.50845 9.37522ZM4 10H4.58152V8H4V10ZM4.58152 10H9V8H4.58152V10ZM21 20V15H19V20H21ZM18.4915 14.6248C17.4524 17.192 14.9361 19 12 19V21C15.7786 21 19.011 18.6717 20.3454 15.3752L18.4915 14.6248ZM20 14H19.4185V16H20V14ZM19.4185 14H15V16H19.4185V14ZM12 19C8.43109 19 5.48467 16.3283 5.05421 12.8763L3.06958 13.1237C3.62332 17.5644 7.40967 21 12 21V19Z" fill="#111827"/>
</g>
</svg>
