<svg width="24" height="24" viewBox="0 0 24 24" fill="none" xmlns="http://www.w3.org/2000/svg">
<g id="Icon/Outline/switch-vertical">
<path id="Icon" d="M6 16C6 16.5523 6.44772 17 7 17C7.55228 17 8 16.5523 8 16H6ZM7 4L7.70711 3.29289C7.31658 2.90237 6.68342 2.90237 6.29289 3.29289L7 4ZM2.29289 7.29289C1.90237 7.68342 1.90237 8.31658 2.29289 8.70711C2.68342 9.09763 3.31658 9.09763 3.70711 8.70711L2.29289 7.29289ZM10.2929 8.70711C10.6834 9.09763 11.3166 9.09763 11.7071 8.70711C12.0976 8.31658 12.0976 7.68342 11.7071 7.29289L10.2929 8.70711ZM18 8C18 7.44772 17.5523 7 17 7C16.4477 7 16 7.44772 16 8H18ZM17 20L16.2929 20.7071C16.6834 21.0976 17.3166 21.0976 17.7071 20.7071L17 20ZM21.7071 16.7071C22.0976 16.3166 22.0976 15.6834 21.7071 15.2929C21.3166 14.9024 20.6834 14.9024 20.2929 15.2929L21.7071 16.7071ZM13.7071 15.2929C13.3166 14.9024 12.6834 14.9024 12.2929 15.2929C11.9024 15.6834 11.9024 16.3166 12.2929 16.7071L13.7071 15.2929ZM8 16V4H6V16H8ZM3.70711 8.70711L7.70711 4.70711L6.29289 3.29289L2.29289 7.29289L3.70711 8.70711ZM6.29289 4.70711L10.2929 8.70711L11.7071 7.29289L7.70711 3.29289L6.29289 4.70711ZM16 8V20H18V8H16ZM20.2929 15.2929L16.2929 19.2929L17.7071 20.7071L21.7071 16.7071L20.2929 15.2929ZM17.7071 19.2929L13.7071 15.2929L12.2929 16.7071L16.2929 20.7071L17.7071 19.2929Z" fill="#111827"/>
</g>
</svg>
