<svg width="24" height="24" viewBox="0 0 24 24" fill="none" xmlns="http://www.w3.org/2000/svg">
<g id="x">
<path id="Union" fill-rule="evenodd" clip-rule="evenodd" d="M12.9783 9.06522C12.9391 9.06522 11.8822 7.69565 10.6304 6.03261L8.36048 3H5.68044C4.20287 3 3 3.00998 3 3.02896C3 3.04891 4.56522 5.15217 6.47283 7.69565C8.38044 10.2489 9.93587 12.3713 9.9257 12.4113C9.90672 12.4402 8.3415 14.1522 6.45287 16.1967C4.55543 18.2409 3 19.9439 3 19.9728C3 20.0018 3.34239 20.0217 3.76265 20.0217H4.5163L7.5 16.7837C9.14309 15.0037 10.5326 13.5065 10.5913 13.4576C10.6696 13.3983 11.4717 14.387 13.1837 16.6859L15.6685 20.012L18.3387 20.0217C19.7971 20.0217 21 19.9928 21 19.9439C21 19.904 19.3467 17.6739 17.3315 14.9837L13.663 10.1022L14.1322 9.60326C14.3967 9.33874 15.7272 7.90109 17.087 6.42391C18.4467 4.94654 19.7185 3.567 19.9141 3.36235L20.2565 3H18.662L15.8543 6.03261C14.3189 7.69565 13.0174 9.06522 12.9783 9.06522ZM10.8752 11.6376C7.92042 7.68582 5.45579 4.3793 5.41685 4.31082C5.34798 4.19382 5.55381 4.17387 6.56103 4.17387H7.77368L13.194 11.413C16.1677 15.3949 18.6234 18.701 18.6324 18.75C18.6523 18.8086 18.2021 18.8478 17.4585 18.8478L16.2556 18.8378L10.8752 11.6376Z" fill="#25262C"/>
</g>
</svg>
